<svg width="380" height="135" viewBox="0 0 380 135" fill="none" xmlns="http://www.w3.org/2000/svg">
<path opacity="0.1" fill-rule="evenodd" clip-rule="evenodd" d="M1 90.1189C1 90.1189 15.8813 86.9605 32.8005 94.5482C64.9797 108.979 66.8154 82.5524 78.7478 69.8098C89.6646 58.1518 98.7058 65.2648 110.861 79.5216C119.826 90.0367 132.891 107.687 146.421 104.846C158.79 102.248 167.558 81.5466 184.701 76.2818C198.289 72.1091 209.331 83.5726 224.977 79.5216C246.202 74.0262 255.683 41.674 270.853 41.674C289.575 41.674 302.757 14.3117 319.789 14.3117C336.721 14.3117 339.019 30.4014 357.541 41.674C371.701 50.2921 378.514 41.674 378.514 41.674V134.022H1V90.1189Z" fill="url(#paint0_linear_1_4444)"/>
<path d="M1 75.7751C1 75.7751 15.8813 72.6624 32.8005 80.1402C64.9797 94.3626 66.8154 68.3181 78.7478 55.76C89.6646 44.2707 98.7058 51.2807 110.861 65.3312C119.826 75.6941 132.891 93.0892 146.421 90.2888C158.79 87.729 167.558 67.3268 184.701 62.1382C198.289 58.026 209.331 69.3235 224.977 65.3312C246.202 59.9153 255.683 28.0315 270.853 28.0315C289.575 28.0315 302.757 1 319.789 1C336.721 1 337.621 16.922 356.143 28.0314C370.302 36.5247 378.514 28.0315 378.514 28.0315" stroke="#1B59F8" stroke-width="1.84723" stroke-linecap="round" stroke-linejoin="round"/>
<defs>
<linearGradient id="paint0_linear_1_4444" x1="69.2265" y1="75.0534" x2="69.2265" y2="134.022" gradientUnits="userSpaceOnUse">
<stop stop-color="#0062FF"/>
<stop offset="1" stop-color="white" stop-opacity="0.01"/>
</linearGradient>
</defs>
</svg>
