<svg width="642" height="342" viewBox="0 0 642 342" fill="none" xmlns="http://www.w3.org/2000/svg">
<path d="M7.2 320V245.5H56.7V257.5H20.8V276.6H54.7V288.6H20.8V308H56.7V320H7.2ZM57.6727 320L76.6727 292.7L57.5727 265.6H72.9727L87.8727 287.6H80.9727L95.8727 265.6H111.173L92.1727 292.7L111.073 320H95.7727L81.0727 298.1H87.7727L73.0727 320H57.6727ZM139.581 321.2C134.181 321.2 129.315 319.967 124.981 317.5C120.715 314.967 117.348 311.567 114.881 307.3C112.415 302.967 111.181 298.1 111.181 292.7C111.181 287.3 112.415 282.467 114.881 278.2C117.348 273.933 120.715 270.567 124.981 268.1C129.315 265.633 134.181 264.4 139.581 264.4C143.448 264.4 147.048 265.1 150.381 266.5C153.715 267.833 156.581 269.7 158.981 272.1C161.448 274.433 163.215 277.233 164.281 280.5L152.781 285.5C151.781 282.767 150.081 280.567 147.681 278.9C145.348 277.233 142.648 276.4 139.581 276.4C136.715 276.4 134.148 277.1 131.881 278.5C129.681 279.9 127.948 281.833 126.681 284.3C125.415 286.767 124.781 289.6 124.781 292.8C124.781 296 125.415 298.833 126.681 301.3C127.948 303.767 129.681 305.7 131.881 307.1C134.148 308.5 136.715 309.2 139.581 309.2C142.715 309.2 145.448 308.367 147.781 306.7C150.115 305.033 151.781 302.8 152.781 300L164.281 305.2C163.215 308.267 161.481 311.033 159.081 313.5C156.681 315.9 153.815 317.8 150.481 319.2C147.148 320.533 143.515 321.2 139.581 321.2ZM171.221 320V244.3H184.321V276.3L182.521 274.4C183.788 271.133 185.854 268.667 188.721 267C191.654 265.267 195.054 264.4 198.921 264.4C202.921 264.4 206.454 265.267 209.521 267C212.654 268.733 215.088 271.167 216.821 274.3C218.554 277.367 219.421 280.933 219.421 285V320H206.321V288.1C206.321 285.7 205.854 283.633 204.921 281.9C203.988 280.167 202.688 278.833 201.021 277.9C199.421 276.9 197.521 276.4 195.321 276.4C193.188 276.4 191.288 276.9 189.621 277.9C187.954 278.833 186.654 280.167 185.721 281.9C184.788 283.633 184.321 285.7 184.321 288.1V320H171.221ZM243.998 321.2C240.198 321.2 236.898 320.567 234.098 319.3C231.298 318.033 229.132 316.233 227.598 313.9C226.065 311.5 225.298 308.733 225.298 305.6C225.298 302.6 225.965 299.933 227.298 297.6C228.632 295.2 230.698 293.2 233.498 291.6C236.298 290 239.832 288.867 244.098 288.2L261.898 285.3V295.3L246.598 297.9C243.998 298.367 242.065 299.2 240.798 300.4C239.532 301.6 238.898 303.167 238.898 305.1C238.898 306.967 239.598 308.467 240.998 309.6C242.465 310.667 244.265 311.2 246.398 311.2C249.132 311.2 251.532 310.633 253.598 309.5C255.732 308.3 257.365 306.667 258.498 304.6C259.698 302.533 260.298 300.267 260.298 297.8V283.8C260.298 281.467 259.365 279.533 257.498 278C255.698 276.4 253.298 275.6 250.298 275.6C247.498 275.6 244.998 276.367 242.798 277.9C240.665 279.367 239.098 281.333 238.098 283.8L227.398 278.6C228.465 275.733 230.132 273.267 232.398 271.2C234.732 269.067 237.465 267.4 240.598 266.2C243.732 265 247.132 264.4 250.798 264.4C255.265 264.4 259.198 265.233 262.598 266.9C265.998 268.5 268.632 270.767 270.498 273.7C272.432 276.567 273.398 279.933 273.398 283.8V320H260.998V310.7L263.798 310.5C262.398 312.833 260.732 314.8 258.798 316.4C256.865 317.933 254.665 319.133 252.198 320C249.732 320.8 246.998 321.2 243.998 321.2ZM282.506 320V265.6H294.806V276.3L293.806 274.4C295.073 271.133 297.14 268.667 300.006 267C302.94 265.267 306.34 264.4 310.206 264.4C314.206 264.4 317.74 265.267 320.806 267C323.94 268.733 326.373 271.167 328.106 274.3C329.84 277.367 330.706 280.933 330.706 285V320H317.606V288.1C317.606 285.7 317.14 283.633 316.206 281.9C315.273 280.167 313.973 278.833 312.306 277.9C310.706 276.9 308.806 276.4 306.606 276.4C304.473 276.4 302.573 276.9 300.906 277.9C299.24 278.833 297.94 280.167 297.006 281.9C296.073 283.633 295.606 285.7 295.606 288.1V320H282.506ZM365.184 342C361.117 342 357.35 341.333 353.884 340C350.417 338.667 347.417 336.8 344.884 334.4C342.417 332.067 340.617 329.3 339.484 326.1L351.684 321.5C352.484 324.033 354.05 326.067 356.384 327.6C358.784 329.2 361.717 330 365.184 330C367.85 330 370.184 329.5 372.184 328.5C374.25 327.5 375.85 326.033 376.984 324.1C378.117 322.233 378.684 319.967 378.684 317.3V304.9L381.184 307.9C379.317 311.167 376.817 313.633 373.684 315.3C370.55 316.967 366.984 317.8 362.984 317.8C357.917 317.8 353.384 316.633 349.384 314.3C345.384 311.967 342.25 308.767 339.984 304.7C337.717 300.633 336.584 296.067 336.584 291C336.584 285.867 337.717 281.3 339.984 277.3C342.25 273.3 345.35 270.167 349.284 267.9C353.217 265.567 357.684 264.4 362.684 264.4C366.75 264.4 370.317 265.267 373.384 267C376.517 268.667 379.117 271.1 381.184 274.3L379.384 277.6V265.6H391.784V317.3C391.784 322.033 390.617 326.267 388.284 330C386.017 333.733 382.884 336.667 378.884 338.8C374.95 340.933 370.384 342 365.184 342ZM364.584 305.7C367.384 305.7 369.817 305.1 371.884 303.9C374.017 302.633 375.684 300.9 376.884 298.7C378.084 296.5 378.684 293.967 378.684 291.1C378.684 288.3 378.05 285.8 376.784 283.6C375.584 281.333 373.917 279.567 371.784 278.3C369.717 277.033 367.317 276.4 364.584 276.4C361.85 276.4 359.384 277.033 357.184 278.3C354.984 279.567 353.25 281.333 351.984 283.6C350.784 285.8 350.184 288.3 350.184 291.1C350.184 293.9 350.784 296.4 351.984 298.6C353.25 300.8 354.95 302.533 357.084 303.8C359.284 305.067 361.784 305.7 364.584 305.7ZM417.518 321.2C413.718 321.2 410.418 320.567 407.618 319.3C404.818 318.033 402.651 316.233 401.118 313.9C399.585 311.5 398.818 308.733 398.818 305.6C398.818 302.6 399.485 299.933 400.818 297.6C402.151 295.2 404.218 293.2 407.018 291.6C409.818 290 413.351 288.867 417.618 288.2L435.418 285.3V295.3L420.118 297.9C417.518 298.367 415.585 299.2 414.318 300.4C413.051 301.6 412.418 303.167 412.418 305.1C412.418 306.967 413.118 308.467 414.518 309.6C415.985 310.667 417.785 311.2 419.918 311.2C422.651 311.2 425.051 310.633 427.118 309.5C429.251 308.3 430.885 306.667 432.018 304.6C433.218 302.533 433.818 300.267 433.818 297.8V283.8C433.818 281.467 432.885 279.533 431.018 278C429.218 276.4 426.818 275.6 423.818 275.6C421.018 275.6 418.518 276.367 416.318 277.9C414.185 279.367 412.618 281.333 411.618 283.8L400.918 278.6C401.985 275.733 403.651 273.267 405.918 271.2C408.251 269.067 410.985 267.4 414.118 266.2C417.251 265 420.651 264.4 424.318 264.4C428.785 264.4 432.718 265.233 436.118 266.9C439.518 268.5 442.151 270.767 444.018 273.7C445.951 276.567 446.918 279.933 446.918 283.8V320H434.518V310.7L437.318 310.5C435.918 312.833 434.251 314.8 432.318 316.4C430.385 317.933 428.185 319.133 425.718 320C423.251 320.8 420.518 321.2 417.518 321.2ZM470.799 340V265.6H483.099V276.4L481.899 273.7C483.766 270.767 486.299 268.5 489.499 266.9C492.699 265.233 496.399 264.4 500.599 264.4C505.733 264.4 510.366 265.667 514.499 268.2C518.633 270.733 521.899 274.133 524.299 278.4C526.766 282.667 527.999 287.467 527.999 292.8C527.999 298.067 526.799 302.867 524.399 307.2C521.999 311.533 518.733 314.967 514.599 317.5C510.466 319.967 505.766 321.2 500.499 321.2C496.566 321.2 492.933 320.433 489.599 318.9C486.333 317.3 483.733 315.033 481.799 312.1L483.899 309.5V340H470.799ZM498.999 309.2C501.999 309.2 504.666 308.5 506.999 307.1C509.333 305.7 511.133 303.767 512.399 301.3C513.733 298.833 514.399 296 514.399 292.8C514.399 289.6 513.733 286.8 512.399 284.4C511.133 281.933 509.333 280 506.999 278.6C504.666 277.133 501.999 276.4 498.999 276.4C496.133 276.4 493.533 277.1 491.199 278.5C488.933 279.9 487.133 281.867 485.799 284.4C484.533 286.867 483.899 289.667 483.899 292.8C483.899 296 484.533 298.833 485.799 301.3C487.133 303.767 488.933 305.7 491.199 307.1C493.533 308.5 496.133 309.2 498.999 309.2ZM551.487 321.2C547.687 321.2 544.387 320.567 541.587 319.3C538.787 318.033 536.62 316.233 535.087 313.9C533.553 311.5 532.787 308.733 532.787 305.6C532.787 302.6 533.453 299.933 534.787 297.6C536.12 295.2 538.187 293.2 540.987 291.6C543.787 290 547.32 288.867 551.587 288.2L569.387 285.3V295.3L554.087 297.9C551.487 298.367 549.553 299.2 548.287 300.4C547.02 301.6 546.387 303.167 546.387 305.1C546.387 306.967 547.087 308.467 548.487 309.6C549.953 310.667 551.753 311.2 553.887 311.2C556.62 311.2 559.02 310.633 561.087 309.5C563.22 308.3 564.853 306.667 565.987 304.6C567.187 302.533 567.787 300.267 567.787 297.8V283.8C567.787 281.467 566.853 279.533 564.987 278C563.187 276.4 560.787 275.6 557.787 275.6C554.987 275.6 552.487 276.367 550.287 277.9C548.153 279.367 546.587 281.333 545.587 283.8L534.887 278.6C535.953 275.733 537.62 273.267 539.887 271.2C542.22 269.067 544.953 267.4 548.087 266.2C551.22 265 554.62 264.4 558.287 264.4C562.753 264.4 566.687 265.233 570.087 266.9C573.487 268.5 576.12 270.767 577.987 273.7C579.92 276.567 580.887 279.933 580.887 283.8V320H568.487V310.7L571.287 310.5C569.887 312.833 568.22 314.8 566.287 316.4C564.353 317.933 562.153 319.133 559.687 320C557.22 320.8 554.487 321.2 551.487 321.2ZM596.595 342C595.128 342 593.695 341.867 592.295 341.6C590.895 341.4 589.628 341 588.495 340.4V329.5C589.361 329.7 590.395 329.9 591.595 330.1C592.861 330.3 594.028 330.4 595.095 330.4C598.095 330.4 600.261 329.7 601.595 328.3C602.995 326.967 604.228 325.167 605.295 322.9L608.895 314.5L608.695 325.5L584.995 265.6H599.095L615.695 309.8H610.695L627.195 265.6H641.395L617.695 325.5C616.295 328.967 614.595 331.933 612.595 334.4C610.595 336.867 608.261 338.733 605.595 340C602.995 341.333 599.995 342 596.595 342Z" fill="white"/>
<mask id="mask0_2636_3131" style="mask-type:luminance" maskUnits="userSpaceOnUse" x="221" y="0" width="199" height="184">
<path d="M358.106 96.6717L420 183.334H355.322L326.042 140.66L358.106 96.6717ZM288.35 89.8606L221.675 0H285.722L320.601 45.9149L288.351 89.8593L288.35 89.8606Z" fill="white"/>
</mask>
<g mask="url(#mask0_2636_3131)">
<path d="M420.002 0H221.677V183.334H420.002V0Z" fill="#999999"/>
</g>
<mask id="mask1_2636_3131" style="mask-type:luminance" maskUnits="userSpaceOnUse" x="220" y="0" width="199" height="184">
<path d="M354.296 0H418.326C373.719 61.0869 329.148 122.147 284.695 183.334H220L225.13 176.004L354.296 0Z" fill="white"/>
</mask>
<g mask="url(#mask1_2636_3131)">
<path d="M418.326 0H220V183.334H418.326V0Z" fill="#999999"/>
</g>
<path fill-rule="evenodd" clip-rule="evenodd" d="M341.242 119.807L326.042 140.66L355.322 183.333H387.66L341.242 119.807Z" fill="#AEAEAE"/>
<path fill-rule="evenodd" clip-rule="evenodd" d="M319.675 91.1936L418.326 0H386.311H354.296L320.6 45.9149L303.887 68.6872L288.348 89.8606L225.13 176.004L220 183.333L319.675 91.1936Z" fill="#AEAEAE"/>
<path fill-rule="evenodd" clip-rule="evenodd" d="M303.886 68.6874L320.598 45.9151L298.669 61.5483L278.179 76.1562L288.347 89.8607L303.886 68.6874Z" fill="#999999"/>
<path fill-rule="evenodd" clip-rule="evenodd" d="M341.242 119.807L326.042 140.661L355.322 183.334L356.683 140.94L358.105 96.672L341.242 119.807Z" fill="#BEBEBE"/>
<path fill-rule="evenodd" clip-rule="evenodd" d="M354.296 0H386.311L252.348 183.333H220L225.13 176.004L354.296 0Z" fill="#FAFAFA"/>
<path fill-rule="evenodd" clip-rule="evenodd" d="M288.35 89.8605L303.888 68.6872L253.698 0H221.675L288.35 89.8605Z" fill="white"/>
</svg>
