<svg width="13" height="13" viewBox="0 0 13 13" fill="none" xmlns="http://www.w3.org/2000/svg">
<path d="M12.4 6.02559L6.72668 11.3763C6.03166 12.0317 5.08899 12.4 4.10607 12.4C3.12316 12.4 2.1805 12.0317 1.48548 11.3763C0.790453 10.7208 0.399994 9.83171 0.399994 8.90468C0.399994 7.97771 0.790453 7.08865 1.48548 6.43317L7.15882 1.08249C7.62216 0.645493 8.25061 0.399994 8.90588 0.399994C9.56115 0.399994 10.1896 0.645493 10.6529 1.08249C11.1163 1.51949 11.3766 2.11218 11.3766 2.73019C11.3766 3.3482 11.1163 3.9409 10.6529 4.37789L4.97343 9.72851C4.74176 9.94705 4.42754 10.0698 4.0999 10.0698C3.77226 10.0698 3.45805 9.94705 3.22637 9.72851C2.9947 9.51004 2.86454 9.21371 2.86454 8.90468C2.86454 8.59571 2.9947 8.29931 3.22637 8.08084L8.46752 3.14358" stroke="#F55D52" stroke-width="0.8" stroke-linecap="round" stroke-linejoin="round"/>
</svg>
