<?xml version="1.0" encoding="utf-8"?>
<!-- Generator: Adobe Illustrator 17.0.0, SVG Export Plug-In . SVG Version: 6.00 Build 0)  -->
<!DOCTYPE svg PUBLIC "-//W3C//DTD SVG 1.1//EN" "http://www.w3.org/Graphics/SVG/1.1/DTD/svg11.dtd">
<svg version="1.1" id="Layer_1" xmlns="http://www.w3.org/2000/svg" xmlns:xlink="http://www.w3.org/1999/xlink" x="0px" y="0px"
	 width="32px" height="32px" viewBox="0 0 32 32" enable-background="new 0 0 32 32" xml:space="preserve">
<path fill="#FFFFFF" d="M20.297,0.003c-0.246,0.01-0.484,0.054-0.731,0.116L2.837,4.194C0.858,4.679-0.38,6.675,0.106,8.656
	l2.346,9.577c0.142,0.57,0.419,1.099,0.807,1.54c0.388,0.441,0.877,0.784,1.424,0.998v-2.308c0-3.393,2.76-6.153,6.153-6.153h15.499
	l-2.308-9.5c-0.204-0.826-0.687-1.556-1.366-2.067C21.981,0.231,21.147-0.03,20.297,0.003z M21.796,5.311l1,4.192l-4.153,0.999
	l-1.039-4.153L21.796,5.311z M10.836,14.771c-2.038,0-3.692,1.654-3.692,3.692v9.845c0,2.038,1.654,3.692,3.692,3.692h17.229
	c2.038,0,3.692-1.654,3.692-3.692v-9.845c0-2.038-1.654-3.692-3.692-3.692H10.836z M10.836,16.732h17.229
	c0.949,0,1.73,0.781,1.73,1.73v1.231H9.106v-1.231C9.106,17.514,9.887,16.732,10.836,16.732z M9.106,23.385h20.69v4.923
	c0,0.949-0.781,1.73-1.73,1.73H10.836c-0.458-0.003-0.897-0.186-1.221-0.51c-0.324-0.324-0.507-0.763-0.51-1.221V23.385z"/>
</svg>
