<?xml version="1.0" encoding="utf-8"?>
<!-- Generator: Adobe Illustrator 17.0.0, SVG Export Plug-In . SVG Version: 6.00 Build 0)  -->
<!DOCTYPE svg PUBLIC "-//W3C//DTD SVG 1.1//EN" "http://www.w3.org/Graphics/SVG/1.1/DTD/svg11.dtd">
<svg version="1.1" id="Layer_1" xmlns="http://www.w3.org/2000/svg" xmlns:xlink="http://www.w3.org/1999/xlink" x="0px" y="0px"
	 width="25px" height="24px" viewBox="0 0 25 24" enable-background="new 0 0 25 24" xml:space="preserve">
<path fill="none" stroke="#FFFFFF" stroke-width="1.5" stroke-linecap="round" stroke-linejoin="round" d="M9.551,14.949
	l-3.102,3.102"/>
<path fill="none" stroke="#FFFFFF" stroke-width="1.5" stroke-linecap="round" stroke-linejoin="round" d="M9.551,18.051
	l-3.102-3.102"/>
<path fill="none" stroke="#FFFFFF" stroke-width="1.5" stroke-linecap="round" stroke-linejoin="round" d="M4.5,11.906V8.091
	c0-1.248,0.773-2.366,1.94-2.807l8.353-3.154C16.102,1.637,17.5,2.603,17.5,4.002v3.35"/>
<path fill="none" stroke="#FFFFFF" stroke-width="1.5" stroke-linecap="round" stroke-linejoin="round" d="M17.749,14.101
	c-0.138,0.001-0.249,0.113-0.249,0.251c0,0.138,0.112,0.25,0.25,0.249c0.138,0,0.25-0.112,0.25-0.25
	C18,14.213,17.888,14.101,17.749,14.101"/>
<path fill="none" stroke="#FFFFFF" stroke-width="1.5" stroke-linecap="round" stroke-linejoin="round" d="M11.162,21H18.5
	c1.65,0,3-1.35,3-3v-7.649c0-1.657-1.343-3-3-3h-12c-1.105,0-2,0.895-2,2v2.906"/>
<path fill="none" stroke="#FFFFFF" stroke-width="1.5" stroke-linecap="round" stroke-linejoin="round" d="M8,22
	c-3.037,0-5.5-2.463-5.5-5.5S4.963,11,8,11c3.038,0,5.5,2.463,5.5,5.5S11.038,22,8,22"/>
</svg>
