<svg width="15" height="15" viewBox="0 0 15 15" fill="none" xmlns="http://www.w3.org/2000/svg">
<g clip-path="url(#clip0_429_321)">
<path d="M0.42139 5.86146L3.2663 8.13739C3.64531 8.44057 3.83482 8.59216 4.04585 8.69996C4.23307 8.79563 4.43236 8.86555 4.6383 8.90778C4.87043 8.95546 5.11312 8.95546 5.5985 8.95546H9.20159C9.68692 8.95546 9.92959 8.95546 10.1617 8.90778C10.3677 8.86555 10.5669 8.79563 10.7542 8.69996C10.9652 8.59216 11.1547 8.44057 11.5337 8.13739L14.3786 5.86146M0.42139 5.86146C0.400024 6.22507 0.400024 6.67206 0.400024 7.24435V10.6666C0.400024 11.9734 0.400024 12.6267 0.654342 13.1259C0.878046 13.5649 1.235 13.9219 1.67405 14.1456C2.17317 14.3999 2.82657 14.3999 4.13336 14.3999H10.6667C11.9735 14.3999 12.6268 14.3999 13.126 14.1456C13.565 13.9219 13.922 13.5649 14.1457 13.1259C14.4 12.6267 14.4 11.9734 14.4 10.6666V7.24435C14.4 6.67206 14.4 6.22507 14.3786 5.86146M0.42139 5.86146C0.448806 5.39483 0.511402 5.06557 0.654342 4.78504C0.878046 4.34599 1.235 3.98904 1.67405 3.76533C2.17317 3.51102 2.82657 3.51102 4.13336 3.51102H4.28891M14.3786 5.86146C14.3512 5.39483 14.2886 5.06557 14.1457 4.78504C13.922 4.34599 13.565 3.98904 13.126 3.76533C12.6268 3.51102 11.9735 3.51102 10.6667 3.51102H10.5111M4.28891 3.51102V2.73324C4.28891 1.44458 5.33359 0.399902 6.62225 0.399902H8.1778C9.4665 0.399902 10.5111 1.44458 10.5111 2.73324V3.51102M4.28891 3.51102H10.5111" stroke="#AFAFAF" stroke-width="0.8" stroke-linecap="round" stroke-linejoin="round"/>
</g>
<defs>
<clipPath id="clip0_429_321">
<rect width="15" height="15" fill="white"/>
</clipPath>
</defs>
</svg>
