<svg width="12" height="12" viewBox="0 0 12 12" fill="none" xmlns="http://www.w3.org/2000/svg">
<path fill-rule="evenodd" clip-rule="evenodd" d="M3.79028 8.21027C6.10071 10.5207 8.24169 10.7737 8.87022 10.7971C9.62975 10.8248 10.4049 10.2046 10.7402 9.56948C10.2054 8.94215 9.50897 8.45543 8.74644 7.92785C8.29637 8.37731 7.74175 9.21255 7.00325 8.91331C6.58323 8.74446 5.54609 8.26675 4.63994 7.36C3.73319 6.45386 3.25608 5.41672 3.08603 4.99729C2.78679 4.25759 3.62443 3.70177 4.0745 3.2517C3.54692 2.47655 3.0686 1.76208 2.44247 1.25433C1.79832 1.59083 1.17459 2.35997 1.20283 3.12972C1.22627 3.75825 1.47924 5.89923 3.79028 8.21027ZM8.82576 11.9983C7.96047 11.9664 5.50823 11.6275 2.94001 9.05993C0.372399 6.49171 0.0340959 4.04007 0.00164765 3.17418C-0.0464238 1.85462 0.964278 0.572918 2.13181 0.072374C2.27241 0.0116639 2.42637 -0.0114502 2.57859 0.00529963C2.73082 0.0220495 2.87607 0.0780879 3.0001 0.167916C3.96634 0.872763 4.63273 1.94055 5.20538 2.77699C5.32451 2.95092 5.37908 3.16102 5.35966 3.37094C5.34024 3.58086 5.24804 3.77738 5.09902 3.9265L4.28421 4.74191C4.47349 5.15953 4.85866 5.8794 5.4896 6.51034C6.12054 7.14128 6.84041 7.52645 7.25863 7.71573L8.07284 6.90092C8.22253 6.75159 8.41988 6.65952 8.63048 6.64074C8.84109 6.62196 9.0516 6.67767 9.22535 6.79817C10.0786 7.38945 11.0809 8.04622 11.8116 8.98181C11.9087 9.10674 11.9705 9.25546 11.9905 9.41244C12.0105 9.56941 11.9879 9.72886 11.9252 9.87414C11.4222 11.0477 10.1495 12.047 8.82576 11.9983Z" fill="#AFAFAF"/>
</svg>
