<svg width="36" height="36" viewBox="0 0 36 36" fill="none" xmlns="http://www.w3.org/2000/svg">
<path d="M27.5326 25.6304C32.8231 20.4329 32.8231 12.0944 27.5326 6.8969C22.2421 1.6994 13.7566 1.6994 8.46756 6.8969C3.17856 12.0944 3.17706 20.4329 8.46756 25.6304" stroke="white" stroke-width="1.5" stroke-linecap="round" stroke-linejoin="round"/>
<path fill-rule="evenodd" clip-rule="evenodd" d="M6.15015 31.5H30.1501H6.15015Z" stroke="white" stroke-width="1.5" stroke-linecap="round" stroke-linejoin="round"/>
<path d="M18 9V10.875" stroke="white" stroke-width="1.5" stroke-linecap="round" stroke-linejoin="round"/>
<path d="M18 24V22.125" stroke="white" stroke-width="1.5" stroke-linecap="round" stroke-linejoin="round"/>
<path d="M21.7305 13.5C21.633 12.036 20.4255 10.875 18.9375 10.875H16.8825C15.4275 10.875 14.25 12.054 14.25 13.5075C14.25 14.715 15.072 15.768 16.242 16.062L19.7565 16.944C20.928 17.238 21.7485 18.291 21.7485 19.4985C21.7485 20.9535 20.5695 22.131 19.116 22.131H17.061C15.57 22.131 14.3625 20.967 14.2665 19.5" stroke="white" stroke-width="1.5" stroke-linecap="round" stroke-linejoin="round"/>
</svg>
