<svg width="20" height="13" viewBox="0 0 20 13" fill="none" xmlns="http://www.w3.org/2000/svg">
<path d="M13.9536 6.28139C13.9536 5.02469 13.6441 3.84117 13.106 2.79297H16.5115C18.4354 2.79297 19.9999 4.35752 19.9999 6.28139C19.9999 8.20525 18.4354 9.76981 16.5115 9.76981H13.106C13.6441 8.72154 13.9536 7.53809 13.9536 6.28139Z" fill="black"/>
<path d="M7.4426 6.28014C7.4426 7.83074 5.1167 7.83074 5.1167 6.28014C5.1167 4.72954 7.4426 4.72954 7.4426 6.28014Z" fill="black"/>
<path d="M0 6.27915C0 9.74145 2.81685 12.5583 6.27914 12.5583C9.74142 12.5583 12.5583 9.74145 12.5583 6.27915C12.5583 2.81686 9.74142 0 6.27914 0C2.81685 0 0 2.81686 0 6.27915ZM3.72127 6.27915C3.72127 4.86809 4.86895 3.72128 6.27914 3.72128C7.6902 3.72128 8.83701 4.86896 8.83701 6.27915C8.83701 7.69022 7.68932 8.83703 6.27914 8.83703C4.86808 8.83703 3.72127 7.68935 3.72127 6.27915Z" fill="black"/>
</svg>
