<?xml version="1.0" encoding="utf-8"?>
<!-- Generator: Adobe Illustrator 17.0.0, SVG Export Plug-In . SVG Version: 6.00 Build 0)  -->
<!DOCTYPE svg PUBLIC "-//W3C//DTD SVG 1.1//EN" "http://www.w3.org/Graphics/SVG/1.1/DTD/svg11.dtd">
<svg version="1.1" id="Layer_1" xmlns="http://www.w3.org/2000/svg" xmlns:xlink="http://www.w3.org/1999/xlink" x="0px" y="0px"
	 width="24px" height="24px" viewBox="0 0 24 24" enable-background="new 0 0 24 24" xml:space="preserve">
<path fill="none" stroke="#FFFFFF" stroke-width="1.5" stroke-linecap="round" stroke-linejoin="round" d="M18.355,17.087
	c3.527-3.465,3.527-9.024,0-12.489s-9.184-3.465-12.71,0s-3.527,9.024,0,12.489"/>
<path fill="none" stroke="#FFFFFF" stroke-width="1.5" stroke-linecap="round" stroke-linejoin="round" d="M4.1,21h16H4.1z"/>
<path fill="none" stroke="#FFFFFF" stroke-width="1.5" stroke-linecap="round" stroke-linejoin="round" d="M12,6v1.25"/>
<path fill="none" stroke="#FFFFFF" stroke-width="1.5" stroke-linecap="round" stroke-linejoin="round" d="M12,16v-1.25"/>
<path fill="none" stroke="#FFFFFF" stroke-width="1.5" stroke-linecap="round" stroke-linejoin="round" d="M14.487,9
	c-0.065-0.976-0.87-1.75-1.862-1.75h-1.37c-0.97,0-1.755,0.786-1.755,1.755c0,0.805,0.548,1.507,1.328,1.703l2.343,0.588
	c0.781,0.196,1.328,0.898,1.328,1.703c0,0.97-0.786,1.755-1.755,1.755h-1.37c-0.994,0-1.799-0.776-1.863-1.754"/>
</svg>
