<svg width="20" height="13" viewBox="0 0 20 13" fill="none" xmlns="http://www.w3.org/2000/svg">
<g clip-path="url(#clip0_3878_4483)">
<path d="M13.954 6.28139C13.954 5.02469 13.6445 3.84117 13.1064 2.79297H16.5119C18.4358 2.79297 20.0003 4.35752 20.0003 6.28139C20.0003 8.20525 18.4358 9.76981 16.5119 9.76981H13.1064C13.6445 8.72154 13.954 7.53809 13.954 6.28139Z" fill="white"/>
<path d="M7.44309 6.28014C7.44309 7.83074 5.11719 7.83074 5.11719 6.28014C5.11719 4.72954 7.44309 4.72954 7.44309 6.28014Z" fill="white"/>
<path d="M0 6.27915C0 9.74145 2.81685 12.5583 6.27914 12.5583C9.74142 12.5583 12.5583 9.74145 12.5583 6.27915C12.5583 2.81686 9.74142 0 6.27914 0C2.81685 0 0 2.81686 0 6.27915ZM3.72127 6.27915C3.72127 4.86809 4.86895 3.72128 6.27914 3.72128C7.6902 3.72128 8.83701 4.86896 8.83701 6.27915C8.83701 7.69022 7.68932 8.83703 6.27914 8.83703C4.86808 8.83703 3.72127 7.68935 3.72127 6.27915Z" fill="white"/>
</g>
<defs>
<clipPath id="clip0_3878_4483">
<rect width="20" height="13" fill="white"/>
</clipPath>
</defs>
</svg>
