<svg width="256" height="256" viewBox="0 0 256 256" fill="none" xmlns="http://www.w3.org/2000/svg">
<path d="M74.7999 10.2C60.4 11.9 49.0999 16.2 38.4999 24.2C13.7999 42.7 3.89995 74.6 13.7999 103.6C17.2999 113.7 22.4999 122.2 30.1999 130.1C41.5999 141.8 55.9999 149.1 72.1999 151.1C79.5999 152.1 90.5999 151.5 93.4999 150C96.1999 148.6 96.4999 144.6 94.0999 142.4C92.8999 141.4 92.6999 141.3 87.9999 141.7C68.2999 143.3 51.8999 137.8 38.7999 125.3C29.4999 116.4 24.0999 107 20.8999 94.4C19.8999 90.5 19.7999 89 19.7999 80.8C19.7999 72.6 19.8999 71.1 20.8999 67.2C26.6999 43.9 43.7999 26.8 67.0999 21C70.9999 20 72.4999 19.9 80.8999 19.9C89.6999 19.9 90.6999 20 95.0999 21.2C109.9 25.1 121.4 32.7 130.1 44.5C133.2 48.7 137.5 56.8 138.9 61.3C139.9 64.6 140.7 65.7 142.3 66.4C145 67.5 148.8 65 148.8 62.1C148.8 60.4 146.3 53.7 143.9 49C134.7 31 118.8 18 99.1999 12.6C91.6999 10.4 81.3999 9.5 74.7999 10.2Z" fill="#F55D52"/>
<path d="M79.8001 33.8C78.2001 34.4 76.8001 35.5 76.3001 36.8C76.0001 37.6 75.8001 44.6 75.8001 56C75.8001 73.7 75.8001 73.9 74.8001 74.8C73.4001 76 72.1001 79 72.1001 80.9C72.1001 82.4 71.3001 83.3 63.1001 91.6C54.1001 100.6 54.1001 100.6 54.1001 102.7C54.1001 103.9 54.4001 105.2 54.8001 105.7C55.7001 107 58.0001 107.9 59.5001 107.5C60.3001 107.3 64.1001 103.9 69.8001 98.2C78.4001 89.6 78.9001 89.2 80.6001 89.2C87.8001 89.2 91.9001 80 86.8001 75.1L85.5001 73.8V55.9C85.5001 35.8 85.4001 35.3 82.5001 34.1C81.6001 33.7 80.8001 33.4 80.7001 33.5C80.8001 33.6 80.3001 33.7 79.8001 33.8Z" fill="white"/>
<path d="M147.9 77.5C146.9 77.8 145.9 78.7 145.1 79.9C144.5 80.9 123.4 117.4 98.2999 160.9C48.2999 247.6 51.1999 242 53.9999 244.9L55.1999 246.1H149.4H243.6L244.8 244.8C247.6 242 250.5 247.4 199.8 159.6C174.4 115.6 153.3 79.1 152.9 78.7C151.5 77.4 149.7 76.9 147.9 77.5ZM191.2 163.8C214.1 203.5 232.8 236.2 232.8 236.5C232.8 236.9 211.3 237 149.2 237C76.2999 237 65.6999 236.9 65.7999 236.3C65.9999 235.5 149 91.6 149.3 91.6C149.4 91.6 168.3 124.1 191.2 163.8Z" fill="#F55D52"/>
<path d="M144.1 137.9C143.4 138.5 143.3 140.6 143.4 166.2L143.5 193.9H149H154.5L154.6 165.9L154.7 137.9L153.7 137.6C151.9 137.1 144.9 137.3 144.1 137.9Z" fill="white"/>
<path d="M143.6 205.5C143.4 205.7 143.3 208.5 143.3 211.7C143.3 218.5 142.9 218.1 149.3 218.1C155.8 218.1 155.3 218.6 155.2 211.5L155.1 205.5L149.5 205.4C146.4 205.2 143.8 205.3 143.6 205.5Z" fill="white"/>
</svg>
