<svg width="36" height="24" viewBox="0 0 36 24" fill="none" xmlns="http://www.w3.org/2000/svg">
<path fill-rule="evenodd" clip-rule="evenodd" d="M17.6 0C9.6 0 2.768 4.976 0 12C2.768 19.024 9.6 24 17.6 24C25.6 24 32.432 19.024 35.2 12C32.432 4.976 25.6 0 17.6 0ZM17.6 20C13.184 20 9.60001 16.416 9.60001 12C9.60001 7.58399 13.184 3.99999 17.6 3.99999C22.016 3.99999 25.6 7.58399 25.6 12C25.6 16.416 22.016 20 17.6 20ZM12.8 12C12.8 9.34395 14.944 7.19995 17.6 7.19995C20.256 7.19995 22.4 9.34395 22.4 12C22.4 14.656 20.256 16.8 17.6 16.8C14.944 16.8 12.8 14.656 12.8 12Z" fill="#AFAFAF"/>
</svg>
