<svg width="34" height="34" viewBox="0 0 34 34" fill="none" xmlns="http://www.w3.org/2000/svg">
<path d="M25.5032 14.1654V11.0871C25.5032 10.336 25.2042 9.61462 24.6727 9.08314L20.6647 5.07514C20.1332 4.54367 19.4118 4.24463 18.6607 4.24463H8.49614C6.93007 4.24463 5.66162 5.51307 5.66162 7.07914V26.9207C5.66162 28.4868 6.93007 29.7553 8.49614 29.7553H14.1652" stroke="white" stroke-width="1.5" stroke-linecap="round" stroke-linejoin="round"/>
<path d="M25.5033 11.3309H19.8342C19.0519 11.3309 18.417 10.696 18.417 9.91366V4.24463" stroke="white" stroke-width="1.5" stroke-linecap="round" stroke-linejoin="round"/>
<path d="M23.3772 31.1725C19.8553 31.1725 16.9995 28.3168 16.9995 24.7949C16.9995 21.273 19.8553 18.4172 23.3772 18.4172C26.9005 18.4172 29.7548 21.273 29.7548 24.7949C29.7548 28.3168 26.9005 31.1725 23.3772 31.1725" stroke="white" stroke-width="1.5" stroke-linecap="round" stroke-linejoin="round"/>
<path d="M23.3786 24.5582V22.2183" stroke="white" stroke-width="1.5" stroke-linecap="round" stroke-linejoin="round"/>
<path d="M23.3774 27.1405C23.3136 27.1405 23.2612 27.1929 23.2626 27.2567C23.2626 27.3205 23.315 27.3729 23.3788 27.3729C23.4426 27.3729 23.4936 27.3205 23.4936 27.2567C23.4936 27.1929 23.4426 27.1405 23.3774 27.1405" stroke="white" stroke-width="1.5" stroke-linecap="round" stroke-linejoin="round"/>
</svg>
