<?xml version="1.0" encoding="utf-8"?>
<!-- Generator: Adobe Illustrator 17.0.0, SVG Export Plug-In . SVG Version: 6.00 Build 0)  -->
<!DOCTYPE svg PUBLIC "-//W3C//DTD SVG 1.1//EN" "http://www.w3.org/Graphics/SVG/1.1/DTD/svg11.dtd">
<svg version="1.1" id="Layer_1" xmlns="http://www.w3.org/2000/svg" xmlns:xlink="http://www.w3.org/1999/xlink" x="0px" y="0px"
	 width="24px" height="24px" viewBox="0 0 24 24" enable-background="new 0 0 24 24" xml:space="preserve">
<path fill="none" stroke="#AFAFAF" stroke-width="1.5" stroke-linecap="round" stroke-linejoin="round" d="M19,17h-1
	c-0.552,0-1-0.448-1-1v-5c0-0.552,0.448-1,1-1h1c1.105,0,2,0.895,2,2v3C21,16.105,20.105,17,19,17z"/>
<path fill="none" stroke="#AFAFAF" stroke-width="1.5" stroke-linecap="round" stroke-linejoin="round" d="M6,17H5
	c-1.105,0-2-0.895-2-2v-3c0-1.105,0.895-2,2-2h1c0.552,0,1,0.448,1,1v5C7,16.552,6.552,17,6,17z"/>
<path fill="none" stroke="#AFAFAF" stroke-width="1.5" stroke-linecap="round" stroke-linejoin="round" d="M18.5,10V9.5
	C18.5,5.91,15.59,3,12,3l0,0C8.41,3,5.5,5.91,5.5,9.5V10"/>
<path fill="none" stroke="#AFAFAF" stroke-width="1.5" stroke-linecap="round" stroke-linejoin="round" d="M12.625,21.25h-1.25
	c-0.69,0-1.25-0.56-1.25-1.25l0,0c0-0.69,0.56-1.25,1.25-1.25h1.25c0.69,0,1.25,0.56,1.25,1.25l0,0
	C13.875,20.69,13.315,21.25,12.625,21.25z"/>
<path fill="none" stroke="#AFAFAF" stroke-width="1.5" stroke-linecap="round" stroke-linejoin="round" d="M13.875,20H16
	c1.105,0,2-0.895,2-2v-1"/>
</svg>
