<svg width="14" height="12" viewBox="0 0 14 12" fill="none" xmlns="http://www.w3.org/2000/svg">
<path d="M1 5.8C1 3.5374 1 2.4058 1.7032 1.7032C2.4058 1 3.5374 1 5.8 1H8.2C10.4626 1 11.5942 1 12.2968 1.7032C13 2.4058 13 3.5374 13 5.8C13 8.0626 13 9.1942 12.2968 9.8968C11.5942 10.6 10.4626 10.6 8.2 10.6H5.8C3.5374 10.6 2.4058 10.6 1.7032 9.8968C1 9.1942 1 8.0626 1 5.8Z" stroke="#AFAFAF" stroke-width="1.5"/>
<path d="M5.8 8.2001H3.4M8.2 8.2001H7.3M1 4.6001H13" stroke="#AFAFAF" stroke-width="1.5" stroke-linecap="round"/>
</svg>
