<?xml version="1.0" encoding="utf-8"?>
<!-- Generator: Adobe Illustrator 17.0.0, SVG Export Plug-In . SVG Version: 6.00 Build 0)  -->
<!DOCTYPE svg PUBLIC "-//W3C//DTD SVG 1.1//EN" "http://www.w3.org/Graphics/SVG/1.1/DTD/svg11.dtd">
<svg version="1.1" id="Layer_1" xmlns="http://www.w3.org/2000/svg" xmlns:xlink="http://www.w3.org/1999/xlink" x="0px" y="0px"
	 width="24px" height="24px" viewBox="0 0 24 24" enable-background="new 0 0 24 24" xml:space="preserve">
<path fill="none" stroke="#AFAFAF" stroke-width="1.5" stroke-linecap="round" stroke-linejoin="round" d="M11.999,8
	c-0.138,0-0.25,0.112-0.249,0.25c0,0.138,0.112,0.25,0.25,0.25s0.25-0.112,0.25-0.25S12.138,8,11.999,8"/>
<path fill="none" stroke="#AFAFAF" stroke-width="1.5" stroke-linecap="round" stroke-linejoin="round" d="M12,21L12,21
	c-4.971,0-9-4.029-9-9l0,0c0-4.971,4.029-9,9-9l0,0c4.971,0,9,4.029,9,9l0,0C21,16.971,16.971,21,12,21z"/>
<path fill="none" stroke="#AFAFAF" stroke-width="1.5" stroke-linecap="round" stroke-linejoin="round" d="M12,12v5"/>
</svg>
