<svg width="24" height="24" viewBox="0 0 24 24" fill="none" xmlns="http://www.w3.org/2000/svg">
<g clip-path="url(#clip0_126_148)">
<path d="M11.7001 2C11.6001 2 11.6001 2 11.5001 2C11.5001 2 11.5001 2 11.4001 2C11.2001 2 11.1001 2 10.9001 2L11.1001 4C11.5001 4 12.0001 4 12.4001 4C16.4001 4.3 19.7001 7.5 19.9001 11.6C20.1001 16 16.7001 19.8 12.3001 20C12.3001 20 12.2001 20 12.1001 20C11.8001 20 11.4001 20 11.1001 20L11.0001 22C11.4001 22 11.8001 22 12.3001 22C12.4001 22 12.6001 22 12.7001 22C18.1001 21.6 22.2001 17 22.0001 11.6C21.8001 6.5 17.7001 2.5 12.7001 2.1C12.5001 2.1 12.4001 2.1 12.2001 2.1C12.0001 2 11.9001 2 11.7001 2ZM8.2001 2.7C7.7001 3 7.2001 3.2 6.7001 3.5L7.8001 5.2C8.1001 5 8.5001 4.8 8.9001 4.6L8.2001 2.7ZM4.5001 5.4C4.1001 5.8 3.8001 6.3 3.5001 6.7L5.2001 7.7C5.4001 7.4 5.7001 7.1 6.0001 6.7L4.5001 5.4ZM15.4001 8.4L10.8001 13.6L8.1001 11.5L7.0001 13.2L11.2001 16.4L17.0001 9.8L15.4001 8.4ZM2.4001 9C2.2001 9.5 2.1001 10.1 2.1001 10.6L4.1001 10.9C4.2001 10.5 4.2001 10 4.4001 9.6L2.4001 9ZM4.1001 13L2.1001 13.2C2.1001 13.3 2.1001 13.4 2.1001 13.5C2.2001 13.9 2.3001 14.4 2.4001 14.8L4.3001 14.2C4.2001 13.9 4.1001 13.5 4.1001 13.1V13ZM5.2001 16.2L3.5001 17.3C3.8001 17.8 4.1001 18.2 4.5001 18.6L6.0001 17.3C5.7001 16.9 5.4001 16.6 5.2001 16.2ZM7.8001 18.8L6.7001 20.5C7.2001 20.8 7.7001 21 8.2001 21.3L9.0001 19.5C8.5001 19.2 8.1001 19 7.8001 18.8Z" fill="#E89900"/>
</g>
<defs>
<clipPath id="clip0_126_148">
<rect width="24" height="24" fill="white"/>
</clipPath>
</defs>
</svg>
