<svg width="37" height="24" viewBox="0 0 37 24" fill="none" xmlns="http://www.w3.org/2000/svg">
<path fill-rule="evenodd" clip-rule="evenodd" d="M11.5603 21.0992V21.6659C11.5603 22.0869 11.2145 22.4327 10.7942 22.4327H7.37617C6.95511 22.4327 6.60936 22.0876 6.60936 21.6659V21.0992H3.54211C2.42812 21.0992 1.55299 20.7836 0.934664 20.1652C0.317054 19.5476 0 18.6739 0 17.5578V3.54211C0 2.42525 0.314902 1.55084 0.93323 0.93323C1.55084 0.314902 2.42525 0 3.54211 0H29.806C30.9228 0 31.7965 0.317054 32.4141 0.934664C33.0325 1.55299 33.3481 2.42812 33.3481 3.54211V10.0704C32.7742 9.8251 32.1659 9.64361 31.5333 9.53458V3.54211C31.5333 2.92809 31.397 2.48335 31.1309 2.21723C30.8654 1.95182 30.4214 1.81481 29.806 1.81481H3.54211C2.92594 1.81481 2.4812 1.9511 2.21579 2.21579C1.9511 2.4812 1.81481 2.92594 1.81481 3.54211V17.5578C1.81481 18.1732 1.95182 18.6165 2.21723 18.8819C2.48335 19.1481 2.92809 19.2844 3.54211 19.2844H22.1221C22.2555 19.9199 22.4621 20.5282 22.7325 21.0992H11.5603ZM18.5541 14.6311C18.26 14.6311 18.0212 14.3126 18.0212 13.9195C18.0212 13.5265 18.26 13.2072 18.5541 13.2072H23.226C22.9412 13.6549 22.6988 14.1312 22.5037 14.6311H18.5541ZM18.5541 10.7382C18.26 10.7382 18.0212 10.419 18.0212 10.0259C18.0212 9.63285 18.26 9.31437 18.5541 9.31437H27.677C27.8714 9.31437 28.0421 9.45352 28.1353 9.66083C27.2598 9.88104 26.4269 10.2451 25.6706 10.7382H18.5541ZM18.5541 6.84392C18.26 6.84392 18.0212 6.52544 18.0212 6.13235C18.0212 5.73926 18.26 5.42077 18.5541 5.42077H27.857C28.1518 5.42077 28.3907 5.73926 28.3907 6.13235C28.3907 6.52544 28.1518 6.84392 27.857 6.84392H18.5541ZM10.0711 15.0924H3.7652C3.84554 14.7825 3.95744 14.4877 4.1547 14.2258C4.32542 14.0013 4.53631 13.8356 4.77088 13.7043C5.49322 13.3012 7.40702 13.1764 8.1229 12.6076C8.23122 12.3737 8.34096 12.0409 8.40983 11.8307C8.41341 11.82 8.40409 11.8486 8.43924 11.7439C8.46865 11.6557 8.42202 11.5359 8.34383 11.4068C8.21113 11.1894 7.98804 10.9455 7.88834 10.7877L7.30229 9.85522C7.08781 9.5353 6.97591 9.24263 6.96945 9.00305C6.96587 8.88971 6.98524 8.78714 7.02684 8.69819C7.0706 8.6035 7.13802 8.5246 7.22841 8.46363C7.27073 8.43493 7.31807 8.41055 7.37043 8.39046C7.33242 7.88475 7.31807 7.24777 7.34246 6.71409C7.35537 6.58712 7.37976 6.46088 7.41491 6.33391C7.6301 5.56638 8.28932 5.01405 9.0425 4.75366C9.40833 4.62741 9.26702 4.32614 9.63644 4.34694C9.7713 4.35412 9.91763 4.37348 10.0711 4.40361C10.8953 4.68552 10.6091 4.58437 11.099 4.75366C11.8522 5.01405 12.5122 5.56638 12.7266 6.33391C12.7618 6.46088 12.7862 6.58712 12.7991 6.71409C12.8235 7.24777 12.8091 7.88475 12.7711 8.39046C12.8235 8.41055 12.8708 8.43493 12.9139 8.46363C13.0035 8.5246 13.071 8.6035 13.1147 8.69819C13.1563 8.78714 13.1757 8.88971 13.1728 9.00305C13.1656 9.24263 13.0537 9.5353 12.84 9.85522L12.2532 10.7877C12.1542 10.9455 11.9304 11.1894 11.7977 11.4068C11.7195 11.5359 11.6729 11.6557 11.703 11.7439C11.7375 11.8486 11.7281 11.82 11.7317 11.8307C11.8013 12.0409 11.9111 12.3737 12.0187 12.6076C12.7353 13.1764 14.6483 13.3012 15.3707 13.7043C15.6052 13.8356 15.8168 14.0013 15.9868 14.2258C16.1848 14.4877 16.2967 14.7825 16.3764 15.0924H10.0711Z" fill="#AFAFAF"/>
<path fill-rule="evenodd" clip-rule="evenodd" d="M30.1338 11.2002C33.668 11.2002 36.533 14.0659 36.533 17.6001C36.533 21.1343 33.668 24 30.1338 24C26.5996 24 23.7339 21.1343 23.7339 17.6001C23.7339 14.0659 26.5996 11.2002 30.1338 11.2002ZM28.3046 16.674L29.273 17.58L31.8051 15.0113C32.0275 14.7853 32.1667 14.6046 32.4407 14.8872L33.3294 15.7982C33.6214 16.0866 33.607 16.2551 33.3316 16.5241L29.7809 20.0153C29.1998 20.5841 29.3017 20.6186 28.7128 20.0347L26.8083 18.1424C26.6856 18.0097 26.6985 17.8756 26.8334 17.7428L27.8649 16.6726C28.0213 16.5076 28.1461 16.522 28.3046 16.674Z" fill="#AFAFAF"/>
</svg>
