<svg width="160" height="25" viewBox="0 0 160 25" fill="none" xmlns="http://www.w3.org/2000/svg">
<path d="M31.4902 18.5221V4.09961H40.1943V5.64888H33.2367V10.5221H39.7436V12.0714H33.2367V16.9728H40.307V18.5221H31.4902ZM44.3564 7.70522L46.9479 12.1277L49.5394 7.70522H51.4548L47.9619 13.1136L51.4548 18.5221H49.5394L46.9479 14.3249L44.3564 18.5221H42.4408L45.8775 13.1136L42.4408 7.70522H44.3564ZM57.7752 18.7474C56.7613 18.7474 55.8879 18.508 55.1556 18.0291C54.4232 17.5503 53.8598 16.8906 53.4654 16.0502C53.0711 15.2099 52.8738 14.2498 52.8738 13.17C52.8738 12.0714 53.0757 11.1019 53.4794 10.2615C53.888 9.41647 54.456 8.75686 55.1837 8.28268C55.9161 7.80381 56.7705 7.56438 57.7471 7.56438C58.5077 7.56438 59.1931 7.70522 59.8035 7.98691C60.4137 8.2686 60.9137 8.66296 61.3034 9.17C61.6931 9.67704 61.9348 10.2686 62.0288 10.9446H60.3669C60.24 10.4517 59.9584 10.0151 59.5217 9.63478C59.0898 9.24982 58.5077 9.05733 57.7752 9.05733C57.1274 9.05733 56.5594 9.22634 56.0711 9.56436C55.5875 9.89769 55.2095 10.3695 54.9372 10.9798C54.6696 11.5855 54.5359 12.2967 54.5359 13.1136C54.5359 13.9493 54.6673 14.677 54.9302 15.2967C55.1978 15.9165 55.5734 16.3977 56.057 16.7403C56.5452 17.083 57.118 17.2544 57.7752 17.2544C58.2072 17.2544 58.5992 17.1793 58.9513 17.0291C59.3034 16.8788 59.6016 16.6629 59.8457 16.3813C60.0897 16.0995 60.2635 15.7615 60.3669 15.3672H62.0288C61.9348 16.0057 61.7025 16.5808 61.3315 17.0925C60.9654 17.5996 60.4794 18.0033 59.8738 18.3038C59.2728 18.5995 58.5734 18.7474 57.7752 18.7474ZM66.1202 12.0151V18.5221H64.4583V4.09961H66.1202V9.39536H66.2612C66.5147 8.83667 66.8949 8.39301 67.4019 8.06438C67.9137 7.73104 68.5944 7.56438 69.4443 7.56438C70.1812 7.56438 70.8269 7.71226 71.3808 8.00804C71.9348 8.29911 72.3644 8.74747 72.6695 9.3531C72.9794 9.95403 73.1343 10.7193 73.1343 11.6489V18.5221H71.4723V11.7615C71.4723 10.9024 71.2493 10.2381 70.8034 9.7686C70.3621 9.29441 69.7494 9.05733 68.9654 9.05733C68.4207 9.05733 67.9326 9.17235 67.5005 9.40239C67.0733 9.63244 66.7353 9.96811 66.4864 10.4094C66.2424 10.8507 66.1202 11.386 66.1202 12.0151ZM79.3579 18.7756C78.6725 18.7756 78.0504 18.6465 77.4918 18.3882C76.933 18.1253 76.4894 17.7474 76.1608 17.2544C75.8322 16.7569 75.6679 16.1559 75.6679 15.4517C75.6679 14.8319 75.7898 14.3296 76.034 13.9446C76.2781 13.555 76.6044 13.2498 77.0129 13.0291C77.4213 12.8085 77.872 12.6442 78.3649 12.5362C78.8626 12.4235 79.3627 12.3343 79.865 12.2686C80.5222 12.1841 81.055 12.1207 81.4636 12.0784C81.8767 12.0315 82.1772 11.954 82.3649 11.846C82.5575 11.7381 82.6536 11.5503 82.6536 11.2827V11.2263C82.6536 10.5315 82.4635 9.99159 82.0832 9.60662C81.7076 9.22164 81.1373 9.02915 80.372 9.02915C79.5786 9.02915 78.9565 9.20286 78.5057 9.55028C78.0552 9.89769 77.7381 10.2686 77.5551 10.6629L75.9776 10.0996C76.2594 9.4423 76.635 8.93057 77.1044 8.56436C77.5786 8.19348 78.0951 7.93527 78.6537 7.78973C79.2171 7.63948 79.771 7.56438 80.3156 7.56438C80.6631 7.56438 81.0622 7.60662 81.5129 7.69113C81.9682 7.77095 82.4072 7.93762 82.8296 8.19113C83.2569 8.44465 83.6115 8.82729 83.8931 9.33902C84.1747 9.85075 84.3157 10.5362 84.3157 11.3953V18.5221H82.6536V17.0572H82.5692C82.4565 17.292 82.2687 17.5432 82.0058 17.8107C81.7429 18.0785 81.3931 18.3061 80.9564 18.4939C80.5199 18.6817 79.987 18.7756 79.3579 18.7756ZM79.6114 17.2826C80.2688 17.2826 80.8227 17.1535 81.2735 16.8954C81.7288 16.6371 82.0715 16.3037 82.3015 15.8953C82.5363 15.4869 82.6536 15.0573 82.6536 14.6066V13.0855C82.5833 13.17 82.4284 13.2474 82.1888 13.3179C81.9542 13.3836 81.6818 13.4423 81.3719 13.4939C81.0668 13.5409 80.7686 13.5831 80.4776 13.6207C80.1912 13.6535 79.9588 13.6817 79.7805 13.7052C79.3484 13.7615 78.9447 13.8531 78.5691 13.9798C78.1983 14.1019 77.8978 14.2873 77.6678 14.5362C77.4425 14.7803 77.3298 15.1136 77.3298 15.5362C77.3298 16.1136 77.5434 16.5502 77.9706 16.8461C78.4025 17.1371 78.9495 17.2826 79.6114 17.2826ZM89.0111 12.0151V18.5221H87.3491V7.70522H88.9546V9.39536H89.0956C89.3491 8.84607 89.734 8.40474 90.2504 8.07141C90.767 7.73339 91.4336 7.56438 92.2505 7.56438C92.9829 7.56438 93.6237 7.71461 94.173 8.01507C94.7222 8.31086 95.1494 8.76155 95.4547 9.36718C95.7598 9.96811 95.9124 10.7287 95.9124 11.6489V18.5221H94.2505V11.7615C94.2505 10.9118 94.0298 10.2498 93.5885 9.77563C93.1472 9.29676 92.5416 9.05733 91.7715 9.05733C91.241 9.05733 90.767 9.17235 90.349 9.40239C89.9358 9.63244 89.6095 9.96811 89.3701 10.4094C89.1307 10.8507 89.0111 11.386 89.0111 12.0151ZM103.316 22.8038C102.513 22.8038 101.823 22.7004 101.245 22.4939C100.668 22.292 100.187 22.0244 99.8015 21.691C99.4212 21.3624 99.1184 21.0103 98.8931 20.6347L100.217 19.7051C100.367 19.9024 100.557 20.1277 100.787 20.3812C101.017 20.6393 101.332 20.8624 101.731 21.0502C102.135 21.2426 102.663 21.3389 103.316 21.3389C104.189 21.3389 104.909 21.1276 105.478 20.7052C106.046 20.2826 106.33 19.6206 106.33 18.7193V16.5221H106.189C106.067 16.7193 105.893 16.9634 105.668 17.2544C105.447 17.5409 105.128 17.7967 104.71 18.022C104.297 18.2428 103.738 18.3531 103.034 18.3531C102.161 18.3531 101.377 18.1465 100.682 17.7333C99.9916 17.3201 99.4447 16.7193 99.0408 15.9306C98.6419 15.1418 98.4424 14.1841 98.4424 13.0573C98.4424 11.9493 98.6371 10.9845 99.0268 10.1629C99.4164 9.33667 99.9587 8.69817 100.654 8.24747C101.348 7.79208 102.151 7.56438 103.062 7.56438C103.766 7.56438 104.325 7.68174 104.738 7.91649C105.156 8.14653 105.475 8.40944 105.696 8.70521C105.921 8.99629 106.095 9.23573 106.217 9.42352H106.386V7.70522H107.992V18.832C107.992 19.7616 107.78 20.5174 107.358 21.0995C106.94 21.6864 106.377 22.1159 105.668 22.3883C104.963 22.6653 104.179 22.8038 103.316 22.8038ZM103.259 16.8601C103.926 16.8601 104.489 16.7076 104.949 16.4023C105.409 16.0972 105.759 15.6582 105.999 15.0855C106.238 14.5127 106.358 13.8273 106.358 13.0291C106.358 12.2498 106.24 11.562 106.006 10.9658C105.771 10.3695 105.423 9.90239 104.963 9.56436C104.503 9.22634 103.935 9.05733 103.259 9.05733C102.555 9.05733 101.968 9.23573 101.499 9.59254C101.034 9.94933 100.684 10.4282 100.449 11.0292C100.219 11.6301 100.104 12.2967 100.104 13.0291C100.104 13.7803 100.222 14.4446 100.456 15.0221C100.696 15.5949 101.048 16.0456 101.513 16.3742C101.982 16.6982 102.564 16.8601 103.259 16.8601ZM114.217 18.7756C113.531 18.7756 112.909 18.6465 112.351 18.3882C111.792 18.1253 111.348 17.7474 111.02 17.2544C110.691 16.7569 110.527 16.1559 110.527 15.4517C110.527 14.8319 110.649 14.3296 110.893 13.9446C111.137 13.555 111.463 13.2498 111.872 13.0291C112.28 12.8085 112.731 12.6442 113.224 12.5362C113.722 12.4235 114.222 12.3343 114.724 12.2686C115.381 12.1841 115.914 12.1207 116.323 12.0784C116.736 12.0315 117.036 11.954 117.224 11.846C117.416 11.7381 117.513 11.5503 117.513 11.2827V11.2263C117.513 10.5315 117.322 9.99159 116.942 9.60662C116.567 9.22164 115.996 9.02915 115.231 9.02915C114.438 9.02915 113.815 9.20286 113.365 9.55028C112.914 9.89769 112.597 10.2686 112.414 10.6629L110.837 10.0996C111.118 9.4423 111.494 8.93057 111.963 8.56436C112.437 8.19348 112.954 7.93527 113.513 7.78973C114.076 7.63948 114.63 7.56438 115.175 7.56438C115.522 7.56438 115.921 7.60662 116.372 7.69113C116.827 7.77095 117.266 7.93762 117.689 8.19113C118.116 8.44465 118.47 8.82729 118.752 9.33902C119.034 9.85075 119.175 10.5362 119.175 11.3953V18.5221H117.513V17.0572H117.428C117.316 17.292 117.128 17.5432 116.865 17.8107C116.602 18.0785 116.252 18.3061 115.815 18.4939C115.379 18.6817 114.846 18.7756 114.217 18.7756ZM114.47 17.2826C115.128 17.2826 115.682 17.1535 116.132 16.8954C116.588 16.6371 116.931 16.3037 117.16 15.8953C117.395 15.4869 117.513 15.0573 117.513 14.6066V13.0855C117.442 13.17 117.287 13.2474 117.048 13.3179C116.813 13.3836 116.541 13.4423 116.231 13.4939C115.926 13.5409 115.628 13.5831 115.337 13.6207C115.05 13.6535 114.818 13.6817 114.639 13.7052C114.207 13.7615 113.804 13.8531 113.428 13.9798C113.057 14.1019 112.757 14.2873 112.527 14.5362C112.301 14.7803 112.189 15.1136 112.189 15.5362C112.189 16.1136 112.402 16.5502 112.83 16.8461C113.261 17.1371 113.809 17.2826 114.47 17.2826ZM128.01 18.5221V4.10201H132.883C134.014 4.10201 134.939 4.30619 135.657 4.71457C136.38 5.11827 136.915 5.66512 137.262 6.35515C137.61 7.04517 137.783 7.81499 137.783 8.6646C137.783 9.51423 137.61 10.2864 137.262 10.9811C136.92 11.6758 136.389 12.2297 135.671 12.6428C134.953 13.0512 134.033 13.2554 132.911 13.2554H129.419V11.7063H132.855C133.629 11.7063 134.251 11.5726 134.721 11.305C135.19 11.0374 135.53 10.676 135.742 10.2207C135.958 9.76065 136.065 9.24197 136.065 8.6646C136.065 8.08725 135.958 7.5709 135.742 7.11558C135.53 6.66025 135.188 6.30351 134.714 6.04534C134.24 5.78248 133.61 5.65104 132.827 5.65104H129.757V18.5221H128.01ZM143.554 18.7756C142.868 18.7756 142.246 18.6465 141.688 18.3882C141.129 18.1254 140.686 17.7475 140.357 17.2546C140.028 16.7571 139.864 16.1563 139.864 15.4522C139.864 14.8326 139.986 14.3303 140.23 13.9454C140.474 13.5558 140.801 13.2507 141.209 13.03C141.617 12.8094 142.068 12.6451 142.561 12.5372C143.058 12.4245 143.558 12.3353 144.061 12.2696C144.718 12.1851 145.251 12.1218 145.659 12.0795C146.072 12.0326 146.372 11.9551 146.56 11.8472C146.753 11.7392 146.849 11.5514 146.849 11.2839V11.2275C146.849 10.5328 146.659 9.99302 146.279 9.60811C145.903 9.22319 145.333 9.03074 144.567 9.03074C143.774 9.03074 143.152 9.20441 142.702 9.55177C142.251 9.89913 141.934 10.27 141.751 10.6643L140.174 10.101C140.456 9.44382 140.831 8.93216 141.301 8.56604C141.775 8.1952 142.291 7.93704 142.849 7.79151C143.413 7.64131 143.967 7.5662 144.511 7.5662C144.859 7.5662 145.258 7.60844 145.708 7.69295C146.164 7.77273 146.602 7.93937 147.025 8.19286C147.452 8.44634 147.806 8.82889 148.088 9.34054C148.37 9.85219 148.511 10.5375 148.511 11.3965V18.5221H146.849V17.0575H146.764C146.652 17.2922 146.464 17.5433 146.201 17.8109C145.938 18.0785 145.589 18.3061 145.152 18.4939C144.715 18.6817 144.183 18.7756 143.554 18.7756ZM143.807 17.2829C144.464 17.2829 145.018 17.1537 145.469 16.8956C145.924 16.6374 146.267 16.3042 146.497 15.8958C146.731 15.4874 146.849 15.0579 146.849 14.6072V13.0864C146.778 13.1709 146.624 13.2483 146.384 13.3187C146.149 13.3845 145.877 13.4431 145.567 13.4948C145.262 13.5417 144.964 13.584 144.673 13.6215C144.387 13.6544 144.154 13.6825 143.976 13.706C143.544 13.7623 143.141 13.8539 142.765 13.9806C142.394 14.1026 142.094 14.2881 141.864 14.5368C141.638 14.7809 141.526 15.1142 141.526 15.5367C141.526 16.1141 141.739 16.5506 142.167 16.8462C142.598 17.1373 143.145 17.2829 143.807 17.2829ZM152.227 22.5778C151.945 22.5778 151.694 22.5543 151.473 22.5073C151.252 22.4651 151.1 22.4229 151.015 22.3805L151.438 20.916C151.841 21.0193 152.198 21.0568 152.508 21.0287C152.818 21.0006 153.093 20.8621 153.332 20.6132C153.576 20.3691 153.799 19.9725 154.001 19.4233L154.311 18.5783L150.311 7.70703H152.114L155.099 16.3252H155.212L158.197 7.70703H160L155.409 20.0993C155.203 20.6579 154.947 21.1202 154.641 21.4864C154.336 21.8572 153.982 22.1318 153.578 22.3102C153.179 22.4886 152.729 22.5778 152.227 22.5778Z" fill="#F4F4F4"/>
<mask id="mask0_7525_12960" style="mask-type:luminance" maskUnits="userSpaceOnUse" x="0" y="0" width="27" height="25">
<path d="M18.4354 13.027L26.6987 24.7055H18.0647L14.1564 18.9557L18.437 13.0287L18.4354 13.027ZM9.12298 12.1087L0.222656 0H8.77219L13.4284 6.1867L9.12298 12.1087Z" fill="white"/>
</mask>
<g mask="url(#mask0_7525_12960)">
<g style="mix-blend-mode:screen" opacity="0.2">
<path d="M26.697 0H0.222656V24.7039H26.697V0Z" fill="white"/>
</g>
</g>
<mask id="mask1_7525_12960" style="mask-type:luminance" maskUnits="userSpaceOnUse" x="0" y="0" width="27" height="25">
<path d="M17.9274 0H26.4753C20.5202 8.23184 14.5701 16.4588 8.63656 24.7039H0.000976562L0.685999 23.7161L17.9291 0H17.9274Z" fill="white"/>
</mask>
<g mask="url(#mask1_7525_12960)">
<g style="mix-blend-mode:screen" opacity="0.2">
<path d="M26.4759 0H0V24.7039H26.4759V0Z" fill="white"/>
</g>
</g>
<path fill-rule="evenodd" clip-rule="evenodd" d="M17.928 0H22.202L4.31862 24.7039H0L0.685022 23.7161L17.928 0Z" fill="white"/>
<path fill-rule="evenodd" clip-rule="evenodd" d="M9.12395 12.1087L11.1989 9.25606L4.49923 0H0.223633L9.12395 12.1087Z" fill="white"/>
<g style="mix-blend-mode:screen" opacity="0.2">
<path fill-rule="evenodd" clip-rule="evenodd" d="M16.1848 16.1445L14.1562 18.9541L18.0645 24.704H22.3815L16.1848 16.1445Z" fill="white"/>
</g>
<g style="mix-blend-mode:screen" opacity="0.2">
<path fill-rule="evenodd" clip-rule="evenodd" d="M13.3066 12.2874L26.4759 0H22.202H17.928L13.4291 6.1867L11.1986 9.25606L9.1237 12.1087L0.685022 23.7161L0 24.7039L13.3066 12.2874Z" fill="white"/>
</g>
<g style="mix-blend-mode:screen" opacity="0.2">
<path fill-rule="evenodd" clip-rule="evenodd" d="M11.1983 9.25491L13.4288 6.18555L10.5017 8.29191L7.7666 10.2609L9.12341 12.1075L11.1983 9.25491Z" fill="white"/>
</g>
<g style="mix-blend-mode:screen" opacity="0.2">
<path fill-rule="evenodd" clip-rule="evenodd" d="M16.1848 16.1447L14.1562 18.9543L18.0645 24.7042L18.2466 18.9923L18.4368 13.0273L16.1848 16.1447Z" fill="white"/>
</g>
</svg>
