<svg width="130" height="128" viewBox="0 0 130 128" fill="none" xmlns="http://www.w3.org/2000/svg">
<g clip-path="url(#clip0_1574_1792)">
<path d="M129.324 74.3945C125.456 112.178 99.4678 127.902 69.7958 127.902C40.519 127.902 2.27529 111.909 0.0235126 88.7143C-0.0368132 88.0927 0.0169407 87.4573 0.207997 86.8681C4.81949 72.6432 33.9088 69.8783 56.042 51.8649C76.2117 35.4496 84.8129 0 98.8079 0C114.281 2.11215 131.043 42.0083 129.324 74.3945Z" fill="#D6E2FF"/>
<path fill-rule="evenodd" clip-rule="evenodd" d="M73.1273 48.4659C70.9909 48.4659 69.2592 50.3571 69.2592 52.6902V56.2104H31.0062C28.8699 56.2104 27.138 58.1017 27.138 60.4347V106.667C27.138 109 28.8699 110.892 31.0062 110.892H73.1273H96.337C98.4734 110.892 100.205 109 100.205 106.667V60.4347V52.6902C100.205 50.3571 98.4734 48.4659 96.337 48.4659H73.1273Z" fill="#3DABFF"/>
<path d="M84.7316 29.2273H37.023C34.8866 29.2273 33.1547 31.1184 33.1547 33.4514V80.6228C33.1547 82.9559 34.8866 84.8471 37.023 84.8471H84.7316C86.868 84.8471 88.5998 82.9559 88.5998 80.6228V33.4514C88.5998 31.1184 86.868 29.2273 84.7316 29.2273Z" fill="#F6F9FF"/>
<path fill-rule="evenodd" clip-rule="evenodd" d="M46.1109 42.3058C45.5863 42.8784 45.5863 43.8072 46.1109 44.38C46.6354 44.9528 47.4858 44.9528 48.0103 44.38L49.3401 42.928L50.6698 44.38C51.1943 44.9528 52.0447 44.9528 52.5692 44.38C53.0938 43.8072 53.0938 42.8784 52.5692 42.3058L51.2396 40.8536L52.5691 39.4016C53.0938 38.8288 53.0938 37.9001 52.5691 37.3273C52.0447 36.7545 51.1942 36.7545 50.6698 37.3273L49.3401 38.7792L48.0103 37.3273C47.4859 36.7545 46.6354 36.7545 46.111 37.3273C45.5863 37.9001 45.5863 38.8288 46.111 39.4016L47.4405 40.8536L46.1109 42.3058Z" fill="#3DABFF"/>
<path fill-rule="evenodd" clip-rule="evenodd" d="M69.6426 42.3058C69.1182 42.8784 69.1182 43.8072 69.6426 44.38C70.1673 44.9528 71.0177 44.9528 71.5422 44.38L72.8719 42.928L74.2015 44.38C74.7261 44.9528 75.5765 44.9528 76.1011 44.38C76.6255 43.8072 76.6255 42.8784 76.1011 42.3058L74.7713 40.8536L76.101 39.4016C76.6255 38.8288 76.6255 37.9001 76.101 37.3273C75.5765 36.7545 74.7261 36.7545 74.2015 37.3273L72.8719 38.7792L71.5422 37.3273C71.0177 36.7545 70.1673 36.7545 69.6428 37.3273C69.1182 37.9001 69.1182 38.8288 69.6428 39.4016L70.9724 40.8536L69.6426 42.3058Z" fill="#3DABFF"/>
<path d="M51.9595 56.8543L52.2685 56.5081C57.6987 50.4238 66.6977 50.582 71.9456 56.8543" stroke="#3DABFF" stroke-width="2" stroke-linecap="round"/>
<path d="M20.3069 68.3351C19.9166 65.7615 21.7344 63.4205 24.1232 63.4205H90.0827C91.9594 63.4205 93.5654 64.8914 93.892 66.9096L100.207 105.926C100.626 108.513 98.8038 110.885 96.3981 110.885H30.0411C28.1487 110.885 26.5339 109.39 26.2247 107.351L20.3069 68.3351Z" fill="#66BDFF"/>
<path opacity="0.5" d="M91.9312 58.7895C96.7974 58.7895 100.742 54.4816 100.742 49.1675C100.742 43.8533 96.7974 39.5454 91.9312 39.5454C87.065 39.5454 83.1201 43.8533 83.1201 49.1675C83.1201 54.4816 87.065 58.7895 91.9312 58.7895Z" fill="#F6F9FF"/>
<path fill-rule="evenodd" clip-rule="evenodd" d="M97.8246 63.2556C95.7066 64.7331 93.1052 65.6037 90.2931 65.6037C83.1812 65.6037 77.4158 60.0349 77.4158 53.1654C77.4158 46.296 83.1812 40.7273 90.2931 40.7273C97.4051 40.7273 103.171 46.296 103.171 53.1654C103.171 56.0492 102.155 58.7034 100.45 60.8131L109.835 70.5349C110.522 71.2458 110.481 72.3596 109.745 73.0226C109.009 73.6855 107.856 73.6466 107.17 72.9356L97.8246 63.2556ZM100.255 53.1654C100.255 58.4794 95.7949 62.7875 90.2931 62.7875C84.7916 62.7875 80.3314 58.4794 80.3314 53.1654C80.3314 47.8514 84.7916 43.5434 90.2931 43.5434C95.7949 43.5434 100.255 47.8514 100.255 53.1654Z" fill="#6C6F89"/>
</g>
<defs>
<clipPath id="clip0_1574_1792">
<rect width="130" height="128" fill="white"/>
</clipPath>
</defs>
</svg>
