<svg width="16" height="18" viewBox="0 0 16 18" fill="none" xmlns="http://www.w3.org/2000/svg">
<path d="M9.88515 16.1111C9.46547 16.6707 8.80683 17 8.10737 17C7.40791 17 6.74927 16.6707 6.32959 16.1111" stroke="#AFAFAF" stroke-width="1.5" stroke-linecap="round" stroke-linejoin="round"/>
<path d="M2.77403 9.42819V6.33333C2.77403 3.38782 5.16185 1 8.10737 1V1C9.52186 1 10.8784 1.5619 11.8786 2.5621C12.8788 3.56229 13.4407 4.91885 13.4407 6.33333V9.4282H13.4367L14.6598 10.6522C15.2019 11.1947 15.3638 12.0103 15.0701 12.7188C14.7764 13.4272 14.0849 13.889 13.318 13.8889H2.8967C2.12979 13.889 1.4383 13.4272 1.14461 12.7188C0.850923 12.0103 1.01287 11.1947 1.55495 10.6522L2.77806 9.42819" stroke="#AFAFAF" stroke-width="1.5" stroke-linecap="round" stroke-linejoin="round"/>
</svg>
