<svg width="23" height="34" viewBox="0 0 23 34" fill="none" xmlns="http://www.w3.org/2000/svg">
<path d="M12.7334 2.7041H8.91294C8.78492 2.7041 8.68091 2.80811 8.68091 2.93613C8.68091 3.06415 8.78492 3.16816 8.91294 3.16816H12.7334C12.8614 3.16816 12.9654 3.06415 12.9654 2.93613C12.9654 2.80811 12.8614 2.7041 12.7334 2.7041Z" fill="white"/>
<path d="M10.8211 23.5707C11.4452 23.5707 11.9532 23.0626 11.9532 22.4385C11.9532 21.8145 11.4452 21.3064 10.8211 21.3064C10.197 21.3064 9.68896 21.8145 9.68896 22.4385C9.68896 23.0626 10.197 23.5707 10.8211 23.5707ZM10.8211 21.7745C11.1852 21.7745 11.4852 22.0705 11.4852 22.4385C11.4852 22.8026 11.1892 23.1026 10.8211 23.1026C10.4571 23.1026 10.157 22.8066 10.157 22.4385C10.157 22.0705 10.4571 21.7745 10.8211 21.7745Z" fill="white"/>
<path fill-rule="evenodd" clip-rule="evenodd" d="M13.1015 24.3829C12.8495 24.847 12.5454 25.283 12.1774 25.6631C11.7573 26.0951 11.2733 26.4512 10.7492 26.7352V29.0275H11.4253C11.5533 29.0275 11.6573 29.1315 11.6573 29.2595V32.768C11.6573 32.896 11.5533 33 11.4253 33H1.23203C1.10401 33 1 32.896 1 32.768V29.2595C1 29.1315 1.10401 29.0275 1.23203 29.0275H1.90811V19.5863C1.88811 18.8622 1.99612 17.7501 2.64821 16.602C3.22428 15.5818 3.99638 14.9457 4.58045 14.5777V4.28041V3.10426C4.58045 1.94412 5.52457 1 6.68471 1H14.9657C16.1259 1 17.07 1.94412 17.07 3.10426V4.28041V7.80086H16.602V4.74847H5.04451V14.6537C5.05251 14.6897 5.05251 14.7257 5.04451 14.7617V19.4143L7.62483 16.83C8.24491 16.2099 9.25703 16.2059 9.88111 16.83C10.1811 17.13 10.3492 17.5341 10.3492 17.9621C10.3492 18.3902 10.1811 18.7942 9.88111 19.0943L8.48094 20.4944H16.602V17.4021H17.07V20.9625V22.2787C17.07 23.4388 16.1259 24.3829 14.9657 24.3829H13.1015ZM14.9617 23.9109C15.8619 23.9109 16.5979 23.1788 16.5979 22.2747H16.602V20.9625H8.01688L7.67283 21.3065C8.28891 22.0586 8.46093 23.0308 8.1849 23.9109H12.9855H14.9617ZM6.68071 1.46806C5.7806 1.46806 5.04451 2.20015 5.04451 3.10426V4.28041H16.5979V3.10426C16.5979 2.20415 15.8659 1.46806 14.9617 1.46806H6.68071ZM11.1853 32.5359V29.4956H10.5092H2.13614H1.46006V32.5359H11.1853ZM10.3912 26.4052C10.3952 26.4012 10.3992 26.3972 10.4052 26.3952C10.9412 26.1271 11.4213 25.7711 11.8414 25.339C12.1174 25.051 12.3494 24.727 12.5574 24.3829H7.99287C7.86086 24.631 7.70084 24.871 7.48881 25.083C7.44481 25.127 7.3848 25.151 7.32479 25.151C7.26478 25.151 7.20478 25.127 7.16077 25.083C7.06876 24.991 7.06876 24.843 7.16077 24.751C8.08089 23.8309 8.09689 22.3787 7.19677 21.4466C7.18486 21.4323 7.18146 21.4165 7.17812 21.4011C7.17586 21.3906 7.17362 21.3802 7.16877 21.3705C7.16501 21.3618 7.16006 21.353 7.15505 21.3441C7.14407 21.3246 7.13277 21.3045 7.13277 21.2825C7.13277 21.2633 7.14217 21.246 7.15195 21.228C7.15643 21.2197 7.161 21.2113 7.16477 21.2025C7.16877 21.1932 7.17144 21.1834 7.17411 21.1736C7.17944 21.1541 7.18477 21.1345 7.20078 21.1185L7.20478 21.1145L9.55707 18.7622C9.7731 18.5502 9.88911 18.2662 9.88911 17.9621C9.88911 17.6581 9.7691 17.3741 9.55707 17.162C9.11701 16.722 8.40093 16.722 7.96087 17.162L4.13639 20.9905C4.04438 21.0825 3.89636 21.0825 3.80435 20.9905C3.71234 20.8985 3.71234 20.7505 3.80435 20.6585L4.57645 19.8824V15.1378C4.08038 15.4938 3.50031 16.0339 3.04826 16.83C2.44818 17.8861 2.34817 18.9062 2.36817 19.5783V29.0235H10.2772V26.6032C10.2772 26.5972 10.2792 26.5922 10.2812 26.5872C10.2832 26.5822 10.2852 26.5772 10.2852 26.5712C10.2852 26.5552 10.2892 26.5392 10.2932 26.5232C10.2972 26.5072 10.3052 26.4952 10.3132 26.4832C10.3158 26.4792 10.3181 26.4752 10.3203 26.4712C10.3247 26.4632 10.3292 26.4552 10.3372 26.4472C10.3492 26.4352 10.3652 26.4232 10.3772 26.4152C10.3832 26.4132 10.3872 26.4092 10.3912 26.4052Z" fill="white"/>
<path d="M12.1774 25.6631L12.3566 25.8374L12.357 25.837L12.1774 25.6631ZM13.1015 24.3829V24.1329H12.9528L12.8818 24.2636L13.1015 24.3829ZM10.7492 26.7352L10.6301 26.5154L10.4992 26.5864V26.7352H10.7492ZM10.7492 29.0275H10.4992V29.2775H10.7492V29.0275ZM1.90811 29.0275V29.2775H2.15811V29.0275H1.90811ZM1.90811 19.5863L2.15821 19.5863L2.15802 19.5794L1.90811 19.5863ZM2.64821 16.602L2.86559 16.7254L2.86589 16.7249L2.64821 16.602ZM4.58045 14.5777L4.71373 14.7892L4.83045 14.7157V14.5777H4.58045ZM17.07 7.80086V8.05086H17.32V7.80086H17.07ZM16.602 7.80086H16.352V8.05086H16.602V7.80086ZM16.602 4.74847H16.852V4.49847H16.602V4.74847ZM5.04451 4.74847V4.49847H4.79451V4.74847H5.04451ZM5.04451 14.6537H4.79451V14.6812L4.80046 14.7079L5.04451 14.6537ZM5.04451 14.7617L4.80046 14.7075L4.79451 14.7343V14.7617H5.04451ZM5.04451 19.4143H4.79451V20.0185L5.22142 19.5909L5.04451 19.4143ZM7.62483 16.83L7.44805 16.6532L7.44792 16.6533L7.62483 16.83ZM8.48094 20.4944L8.30416 20.3177L7.87738 20.7444H8.48094V20.4944ZM16.602 20.4944V20.7444H16.852V20.4944H16.602ZM16.602 17.4021V17.1521H16.352V17.4021H16.602ZM17.07 17.4021H17.32V17.1521H17.07V17.4021ZM16.5979 22.2747V22.0247H16.3479V22.2747H16.5979ZM16.602 22.2747V22.5247H16.852V22.2747H16.602ZM16.602 20.9625H16.852V20.7125H16.602V20.9625ZM8.01688 20.9625V20.7125H7.91333L7.8401 20.7857L8.01688 20.9625ZM7.67283 21.3065L7.49606 21.1298L7.33598 21.2898L7.47944 21.465L7.67283 21.3065ZM8.1849 23.9109L7.94636 23.8361L7.84448 24.1609H8.1849V23.9109ZM5.04451 4.28041H4.79451V4.53041H5.04451V4.28041ZM16.5979 4.28041V4.53041H16.8479V4.28041H16.5979ZM11.1853 29.4956H11.4353V29.2456H11.1853V29.4956ZM11.1853 32.5359V32.7859H11.4353V32.5359H11.1853ZM1.46006 29.4956V29.2456H1.21006V29.4956H1.46006ZM1.46006 32.5359H1.21006V32.7859H1.46006V32.5359ZM10.4052 26.3952L10.4843 26.6323L10.5011 26.6267L10.517 26.6188L10.4052 26.3952ZM11.8414 25.339L12.0206 25.5133L12.0219 25.512L11.8414 25.339ZM12.5574 24.3829L12.7714 24.5123L13.0008 24.1329H12.5574V24.3829ZM7.99287 24.3829V24.1329H7.84273L7.77219 24.2655L7.99287 24.3829ZM7.48881 25.083L7.66559 25.2598L7.66559 25.2598L7.48881 25.083ZM7.16077 25.083L6.98399 25.2598L6.984 25.2598L7.16077 25.083ZM7.16077 24.751L7.33755 24.9278L7.33755 24.9278L7.16077 24.751ZM7.19677 21.4466L7.00472 21.6066L7.01058 21.6136L7.01694 21.6202L7.19677 21.4466ZM7.17812 21.4011L6.93376 21.4539L6.93376 21.4539L7.17812 21.4011ZM7.16877 21.3705L6.93899 21.469L6.94188 21.4758L6.94516 21.4824L7.16877 21.3705ZM7.15505 21.3441L6.9372 21.4667L6.9372 21.4667L7.15505 21.3441ZM7.15195 21.228L7.37166 21.3473L7.37166 21.3473L7.15195 21.228ZM7.16477 21.2025L6.93499 21.104L6.93499 21.104L7.16477 21.2025ZM7.20078 21.1185L7.37754 21.2953L7.37759 21.2953L7.20078 21.1185ZM7.20478 21.1145L7.028 20.9377L7.02796 20.9378L7.20478 21.1145ZM9.55707 18.7622L9.38195 18.5838L9.38029 18.5854L9.55707 18.7622ZM7.96087 17.162L7.78409 16.9852L7.784 16.9853L7.96087 17.162ZM4.13639 20.9905L4.31317 21.1673L4.31326 21.1672L4.13639 20.9905ZM3.80435 20.9905L3.62757 21.1673L3.62757 21.1673L3.80435 20.9905ZM3.80435 20.6585L3.98113 20.8352L3.98158 20.8348L3.80435 20.6585ZM4.57645 19.8824L4.75368 20.0587L4.82645 19.9855V19.8824H4.57645ZM4.57645 15.1378H4.82645V14.6506L4.43067 14.9347L4.57645 15.1378ZM3.04826 16.83L3.26562 16.9535L3.26565 16.9534L3.04826 16.83ZM2.36817 19.5783H2.61828L2.61806 19.5709L2.36817 19.5783ZM2.36817 29.0235H2.11817V29.2735H2.36817V29.0235ZM10.2772 29.0235V29.2735H10.5272V29.0235H10.2772ZM10.2812 26.5872L10.049 26.4943L10.049 26.4944L10.2812 26.5872ZM10.2932 26.5232L10.0506 26.4626L10.0506 26.4626L10.2932 26.5232ZM10.3132 26.4832L10.5212 26.6219L10.5212 26.6219L10.3132 26.4832ZM10.3203 26.4712L10.5388 26.5926L10.5388 26.5926L10.3203 26.4712ZM10.3372 26.4472L10.1604 26.2704L10.1604 26.2704L10.3372 26.4472ZM10.3772 26.4152L10.2981 26.178L10.2663 26.1886L10.2385 26.2072L10.3772 26.4152ZM12.357 25.837C12.7436 25.4378 13.0604 24.9824 13.3212 24.5022L12.8818 24.2636C12.6386 24.7115 12.3473 25.1283 11.9978 25.4892L12.357 25.837ZM10.8683 26.955C11.4126 26.66 11.9175 26.2891 12.3566 25.8374L11.9981 25.4888C11.5972 25.9012 11.1339 26.2424 10.6301 26.5154L10.8683 26.955ZM10.9992 29.0275V26.7352H10.4992V29.0275H10.9992ZM11.4253 28.7775H10.7492V29.2775H11.4253V28.7775ZM11.9073 29.2595C11.9073 28.9935 11.6914 28.7775 11.4253 28.7775V29.2775C11.4152 29.2775 11.4073 29.2696 11.4073 29.2595H11.9073ZM11.9073 32.768V29.2595H11.4073V32.768H11.9073ZM11.4253 33.25C11.6914 33.25 11.9073 33.0341 11.9073 32.768H11.4073C11.4073 32.7579 11.4153 32.75 11.4253 32.75V33.25ZM1.23203 33.25H11.4253V32.75H1.23203V33.25ZM0.75 32.768C0.75 33.0341 0.965947 33.25 1.23203 33.25V32.75C1.24208 32.75 1.25 32.7579 1.25 32.768H0.75ZM0.75 29.2595V32.768H1.25V29.2595H0.75ZM1.23203 28.7775C0.965941 28.7775 0.75 28.9935 0.75 29.2595H1.25C1.25 29.2696 1.24208 29.2775 1.23203 29.2775V28.7775ZM1.90811 28.7775H1.23203V29.2775H1.90811V28.7775ZM1.65811 19.5863V29.0275H2.15811V19.5863H1.65811ZM2.43082 16.4785C1.74982 17.6776 1.63736 18.8385 1.65821 19.5932L2.15802 19.5794C2.13886 18.886 2.24243 17.8226 2.86559 16.7254L2.43082 16.4785ZM4.44717 14.3662C3.83805 14.75 3.03207 15.4138 2.43052 16.479L2.86589 16.7249C3.41649 15.7499 4.1547 15.1415 4.71373 14.7892L4.44717 14.3662ZM4.33045 4.28041V14.5777H4.83045V4.28041H4.33045ZM4.33045 3.10426V4.28041H4.83045V3.10426H4.33045ZM6.68471 0.75C5.38649 0.75 4.33045 1.80605 4.33045 3.10426H4.83045C4.83045 2.08219 5.66264 1.25 6.68471 1.25V0.75ZM14.9657 0.75H6.68471V1.25H14.9657V0.75ZM17.32 3.10426C17.32 1.80605 16.264 0.75 14.9657 0.75V1.25C15.9878 1.25 16.82 2.08219 16.82 3.10426H17.32ZM17.32 4.28041V3.10426H16.82V4.28041H17.32ZM17.32 7.80086V4.28041H16.82V7.80086H17.32ZM16.602 8.05086H17.07V7.55086H16.602V8.05086ZM16.352 4.74847V7.80086H16.852V4.74847H16.352ZM5.04451 4.99847H16.602V4.49847H5.04451V4.99847ZM5.29451 14.6537V4.74847H4.79451V14.6537H5.29451ZM5.28855 14.816C5.30449 14.7442 5.30449 14.6712 5.28855 14.5995L4.80046 14.7079V14.7075L5.28855 14.816ZM5.29451 19.4143V14.7617H4.79451V19.4143H5.29451ZM7.44792 16.6533L4.86759 19.2377L5.22142 19.5909L7.80174 17.0066L7.44792 16.6533ZM10.0579 16.6532C9.33577 15.9311 8.16535 15.9359 7.44805 16.6532L7.80161 17.0068C8.32446 16.4839 9.1783 16.4807 9.70433 17.0068L10.0579 16.6532ZM10.5992 17.9621C10.5992 17.4678 10.4048 17.0002 10.0579 16.6532L9.70433 17.0068C9.95745 17.2599 10.0992 17.6003 10.0992 17.9621H10.5992ZM10.0579 19.271C10.4048 18.9241 10.5992 18.4564 10.5992 17.9621H10.0992C10.0992 18.3239 9.95745 18.6644 9.70433 18.9175L10.0579 19.271ZM8.65771 20.6712L10.0579 19.271L9.70433 18.9175L8.30416 20.3177L8.65771 20.6712ZM16.602 20.2444H8.48094V20.7444H16.602V20.2444ZM16.352 17.4021V20.4944H16.852V17.4021H16.352ZM17.07 17.1521H16.602V17.6521H17.07V17.1521ZM17.32 20.9625V17.4021H16.82V20.9625H17.32ZM17.32 22.2787V20.9625H16.82V22.2787H17.32ZM14.9657 24.6329C16.264 24.6329 17.32 23.5769 17.32 22.2787H16.82C16.82 23.3007 15.9878 24.1329 14.9657 24.1329V24.6329ZM13.1015 24.6329H14.9657V24.1329H13.1015V24.6329ZM16.3479 22.2747C16.3479 23.0403 15.7242 23.6609 14.9617 23.6609V24.1609C15.9995 24.1609 16.8479 23.3172 16.8479 22.2747H16.3479ZM16.602 22.0247H16.5979V22.5247H16.602V22.0247ZM16.352 20.9625V22.2747H16.852V20.9625H16.352ZM8.01688 21.2125H16.602V20.7125H8.01688V21.2125ZM7.84961 21.4833L8.19365 21.1393L7.8401 20.7857L7.49606 21.1298L7.84961 21.4833ZM8.42344 23.9857C8.72444 23.026 8.53622 21.966 7.86623 21.1481L7.47944 21.465C8.0416 22.1512 8.19743 23.0355 7.94636 23.8361L8.42344 23.9857ZM12.9855 23.6609H8.1849V24.1609H12.9855V23.6609ZM14.9617 23.6609H12.9855V24.1609H14.9617V23.6609ZM5.29451 3.10426C5.29451 2.33862 5.91827 1.71806 6.68071 1.71806V1.21806C5.64292 1.21806 4.79451 2.06168 4.79451 3.10426H5.29451ZM5.29451 4.28041V3.10426H4.79451V4.28041H5.29451ZM16.5979 4.03041H5.04451V4.53041H16.5979V4.03041ZM16.3479 3.10426V4.28041H16.8479V3.10426H16.3479ZM14.9617 1.71806C15.7274 1.71806 16.3479 2.34182 16.3479 3.10426H16.8479C16.8479 2.06648 16.0043 1.21806 14.9617 1.21806V1.71806ZM6.68071 1.71806H14.9617V1.21806H6.68071V1.71806ZM10.9353 29.4956V32.5359H11.4353V29.4956H10.9353ZM10.5092 29.7456H11.1853V29.2456H10.5092V29.7456ZM2.13614 29.7456H10.5092V29.2456H2.13614V29.7456ZM1.46006 29.7456H2.13614V29.2456H1.46006V29.7456ZM1.71006 32.5359V29.4956H1.21006V32.5359H1.71006ZM11.1853 32.2859H1.46006V32.7859H11.1853V32.2859ZM10.3261 26.158C10.2902 26.17 10.263 26.1873 10.244 26.2021C10.2274 26.215 10.2146 26.2282 10.2144 26.2284L10.5679 26.582C10.5717 26.5782 10.563 26.5874 10.5509 26.5968C10.5364 26.6081 10.5141 26.6224 10.4843 26.6323L10.3261 26.158ZM11.6621 25.1648C11.2608 25.5776 10.8033 25.9166 10.2934 26.1716L10.517 26.6188C11.0792 26.3377 11.5818 25.9646 12.0206 25.5133L11.6621 25.1648ZM12.3435 24.2536C12.1419 24.587 11.9206 24.895 11.6609 25.1661L12.0219 25.512C12.3141 25.207 12.5569 24.867 12.7714 24.5123L12.3435 24.2536ZM7.99287 24.6329H12.5574V24.1329H7.99287V24.6329ZM7.66559 25.2598C7.90002 25.0254 8.07371 24.7631 8.21356 24.5004L7.77219 24.2655C7.648 24.4988 7.50166 24.7166 7.31204 24.9062L7.66559 25.2598ZM7.32479 25.401C7.45003 25.401 7.57394 25.3514 7.66559 25.2598L7.31204 24.9062C7.31413 24.9041 7.31616 24.9029 7.31782 24.9023C7.31941 24.9016 7.32163 24.901 7.32479 24.901V25.401ZM6.984 25.2598C7.07564 25.3514 7.19956 25.401 7.32479 25.401V24.901C7.32795 24.901 7.33018 24.9016 7.33176 24.9023C7.33343 24.9029 7.33545 24.9041 7.33755 24.9062L6.984 25.2598ZM6.984 24.5742C6.79435 24.7638 6.79435 25.0701 6.98399 25.2598L7.33755 24.9062C7.34317 24.9119 7.34317 24.9221 7.33755 24.9278L6.984 24.5742ZM7.01694 21.6202C7.82161 22.4535 7.80841 23.7498 6.98399 24.5742L7.33755 24.9278C8.35336 23.9119 8.37217 22.3038 7.37661 21.2729L7.01694 21.6202ZM6.93376 21.4539C6.9361 21.4647 6.94849 21.5391 7.00472 21.6066L7.38883 21.2865C7.42122 21.3254 7.42682 21.3684 7.42248 21.3483L6.93376 21.4539ZM6.94516 21.4824C6.93858 21.4692 6.93527 21.4586 6.93389 21.4537C6.9332 21.4512 6.93285 21.4498 6.93289 21.4499C6.93297 21.4502 6.93312 21.4509 6.93376 21.4539L7.42249 21.3483C7.42128 21.3427 7.41362 21.3012 7.39238 21.2587L6.94516 21.4824ZM6.9372 21.4667C6.93999 21.4717 6.94087 21.4733 6.94144 21.4743C6.94187 21.4752 6.94071 21.473 6.93899 21.469L7.39855 21.2721C7.38851 21.2486 7.37651 21.2279 7.37289 21.2214L6.9372 21.4667ZM6.88277 21.2825C6.88277 21.3817 6.93351 21.4602 6.9372 21.4667L7.37289 21.2214C7.36984 21.216 7.36893 21.2144 7.36836 21.2133C7.36796 21.2125 7.3692 21.2148 7.37098 21.2191C7.37441 21.2274 7.38277 21.2503 7.38277 21.2825H6.88277ZM6.93223 21.1087C6.92928 21.1142 6.88277 21.1885 6.88277 21.2825H7.38277C7.38277 21.3144 7.37482 21.3376 7.37099 21.3472C7.36908 21.352 7.36767 21.3548 7.36787 21.3544C7.36823 21.3536 7.36891 21.3524 7.37166 21.3473L6.93223 21.1087ZM6.93499 21.104C6.93606 21.1015 6.93669 21.1004 6.9362 21.1013C6.93557 21.1026 6.93469 21.1042 6.93223 21.1087L7.37166 21.3473C7.37525 21.3407 7.38548 21.3222 7.39456 21.301L6.93499 21.104ZM6.93291 21.1079C6.9322 21.1105 6.93182 21.1119 6.93147 21.1131C6.93116 21.1142 6.93108 21.1144 6.93117 21.1141C6.93132 21.1137 6.93254 21.1098 6.93499 21.104L7.39456 21.301C7.40653 21.2731 7.41339 21.2464 7.4153 21.2394L6.93291 21.1079ZM7.02401 20.9417C6.95452 21.0112 6.93625 21.0956 6.93291 21.1079L7.4153 21.2394C7.41601 21.2368 7.41639 21.2354 7.41674 21.2342C7.41705 21.2331 7.41713 21.2328 7.41704 21.2331C7.41689 21.2336 7.41568 21.2375 7.41323 21.2432C7.40779 21.2559 7.39699 21.2759 7.37754 21.2953L7.02401 20.9417ZM7.02796 20.9378L7.02396 20.9418L7.37759 21.2953L7.38159 21.2913L7.02796 20.9378ZM9.38029 18.5854L7.028 20.9377L7.38155 21.2913L9.73385 18.939L9.38029 18.5854ZM9.63911 17.9621C9.63911 18.201 9.54868 18.4202 9.38195 18.5838L9.73219 18.9406C9.99751 18.6802 10.1391 18.3313 10.1391 17.9621H9.63911ZM9.38029 17.3388C9.54604 17.5045 9.63911 17.7252 9.63911 17.9621H10.1391C10.1391 17.5909 9.99215 17.2436 9.73385 16.9852L9.38029 17.3388ZM8.13765 17.3388C8.48007 16.9964 9.03787 16.9964 9.38029 17.3388L9.73385 16.9852C9.19616 16.4476 8.32178 16.4476 7.78409 16.9852L8.13765 17.3388ZM4.31326 21.1672L8.13774 17.3387L7.784 16.9853L3.95952 20.8138L4.31326 21.1672ZM3.62757 21.1673C3.81722 21.3569 4.12353 21.3569 4.31317 21.1673L3.95962 20.8137C3.96524 20.8081 3.97551 20.8081 3.98113 20.8137L3.62757 21.1673ZM3.62757 20.4817C3.43793 20.6713 3.43793 20.9776 3.62757 21.1673L3.98113 20.8137C3.98675 20.8193 3.98675 20.8296 3.98113 20.8352L3.62757 20.4817ZM4.39921 19.706L3.62712 20.4821L3.98158 20.8348L4.75368 20.0587L4.39921 19.706ZM4.32645 15.1378V19.8824H4.82645V15.1378H4.32645ZM3.26565 16.9534C3.69597 16.1956 4.24834 15.681 4.72222 15.3409L4.43067 14.9347C3.91243 15.3066 3.30465 15.8722 2.83086 16.7065L3.26565 16.9534ZM2.61806 19.5709C2.59899 18.93 2.69444 17.9588 3.26562 16.9535L2.83089 16.7065C2.20192 17.8135 2.09735 18.8824 2.11828 19.5858L2.61806 19.5709ZM2.61817 29.0235V19.5783H2.11817V29.0235H2.61817ZM10.2772 28.7735H2.36817V29.2735H10.2772V28.7735ZM10.0272 26.6032V29.0235H10.5272V26.6032H10.0272ZM10.049 26.4944C10.0488 26.4948 10.0272 26.5424 10.0272 26.6032H10.5272C10.5272 26.6288 10.5228 26.6496 10.5188 26.6635C10.5155 26.6752 10.5115 26.6844 10.5133 26.68L10.049 26.4944ZM10.0352 26.5712C10.0352 26.5456 10.0396 26.5248 10.0435 26.5109C10.0469 26.4992 10.0508 26.49 10.049 26.4943L10.5133 26.6801C10.5135 26.6796 10.5352 26.632 10.5352 26.5712H10.0352ZM10.0506 26.4626C10.0481 26.4727 10.0352 26.519 10.0352 26.5712H10.5352C10.5352 26.5836 10.5336 26.5919 10.5334 26.5933C10.5332 26.5941 10.5332 26.594 10.5336 26.5922C10.5341 26.5903 10.5346 26.5881 10.5357 26.5838L10.0506 26.4626ZM10.1052 26.3445C10.099 26.3537 10.0665 26.3991 10.0506 26.4626L10.5357 26.5838C10.5316 26.6003 10.5258 26.6128 10.5218 26.6202C10.52 26.6236 10.5186 26.6257 10.5185 26.6259C10.5184 26.626 10.5186 26.6258 10.519 26.6251C10.5195 26.6243 10.5201 26.6235 10.5212 26.6219L10.1052 26.3445ZM10.1017 26.3498C10.1004 26.3521 10.1006 26.3519 10.1009 26.3512C10.1015 26.3503 10.103 26.3478 10.1052 26.3445L10.5212 26.6219C10.5303 26.6081 10.5372 26.5954 10.5388 26.5926L10.1017 26.3498ZM10.1604 26.2704C10.125 26.3058 10.106 26.3421 10.1017 26.3498L10.5388 26.5926C10.5435 26.5842 10.5333 26.6046 10.5139 26.624L10.1604 26.2704ZM10.2385 26.2072C10.2192 26.2201 10.1884 26.2424 10.1604 26.2704L10.5139 26.624C10.5122 26.6258 10.5111 26.6267 10.5109 26.6268C10.5107 26.627 10.511 26.6268 10.5116 26.6263C10.5131 26.6251 10.5148 26.6239 10.5159 26.6232L10.2385 26.2072ZM10.2144 26.2284C10.2106 26.2322 10.2194 26.223 10.2315 26.2136C10.246 26.2023 10.2682 26.188 10.2981 26.178L10.4563 26.6523C10.4921 26.6404 10.5194 26.6231 10.5384 26.6083C10.555 26.5954 10.5677 26.5822 10.5679 26.582L10.2144 26.2284Z" fill="white"/>
<path d="M17.5733 11.0321C18.0431 11.5011 18.307 12.1373 18.307 12.8006C18.307 13.4639 18.0431 14.1001 17.5733 14.5691M19.0919 9.51603C20.9093 11.3298 20.9093 14.2709 19.0919 16.0852M20.6106 8C23.2665 10.6514 23.2665 14.9498 20.6106 17.6012M16.0546 13.0531L15.8017 12.8006L16.0546 12.5481C16.1217 12.6151 16.1593 12.7059 16.1593 12.8006C16.1593 12.8953 16.1217 12.9861 16.0546 13.0531Z" stroke="white" stroke-width="0.7" stroke-linecap="round" stroke-linejoin="round"/>
<path d="M11.0004 8V9.0002" stroke="white" stroke-width="0.8" stroke-linecap="round" stroke-linejoin="round"/>
<path d="M11.0004 16.0015V15.0013" stroke="white" stroke-width="0.8" stroke-linecap="round" stroke-linejoin="round"/>
<path d="M12.9904 10.4005C12.9384 9.61957 12.2943 9.00024 11.5005 9.00024H10.4043C9.62813 9.00024 9 9.62917 9 10.4045C9 11.0487 9.43849 11.6104 10.0626 11.7672L11.9374 12.2377C12.5623 12.3945 13 12.9562 13 13.6004C13 14.3765 12.3711 15.0046 11.5957 15.0046H10.4995C9.70414 15.0046 9.06001 14.3837 9.0088 13.6012" stroke="white" stroke-width="0.8" stroke-linecap="round" stroke-linejoin="round"/>
</svg>
