<svg width="96" height="95" viewBox="0 0 96 95" fill="none" xmlns="http://www.w3.org/2000/svg">
<path d="M89.25 8.62442C88.75 6.42442 85.95 5.62441 84.35 7.22441L79.35 12.2244C60.65 -4.57558 31.95 -4.07558 13.95 13.8244C-4.65 32.4244 -4.65 62.6244 13.95 81.2244C14.55 81.8244 15.15 82.3244 15.65 82.9244C16.65 83.8244 17.85 84.2244 19.05 84.2244C20.45 84.2244 21.85 83.6244 22.85 82.5244C24.75 80.4244 24.55 77.2244 22.45 75.3244L21.05 74.0244C6.55 59.4244 6.55 35.6244 21.15 21.0244C35.15 7.02442 57.45 6.62442 72.15 19.4244L66.65 24.9244C65.05 26.5244 65.85 29.3244 68.05 29.8244L91.45 35.5244C93.55 36.0244 95.55 34.1244 95.05 31.9244L89.25 8.62442Z" fill="#FEA55C"/>
<path d="M64.3502 52.1244L52.6502 44.7244V26.0244C52.6502 23.2244 50.3502 20.9244 47.5502 20.9244C44.7502 20.9244 42.4502 23.2244 42.4502 26.0244V47.4244C42.4502 49.1244 43.3502 50.8244 44.8502 51.7244L58.8502 60.6244C59.6502 61.1244 60.6502 61.4244 61.5502 61.4244C63.2502 61.4244 64.8502 60.6244 65.8502 59.0244C67.4502 56.7244 66.7502 53.6244 64.3502 52.1244Z" fill="#FEA55C"/>
<path d="M37.85 83.6244L35.95 83.0244C33.25 82.1244 30.35 83.6244 29.55 86.2244C28.65 88.9244 30.15 91.8244 32.75 92.6244C33.55 92.9244 34.35 93.1244 35.15 93.3244C35.55 93.4244 36.05 93.5244 36.45 93.5244C38.65 93.5244 40.75 92.0244 41.35 89.7244C42.15 87.1244 40.55 84.3244 37.85 83.6244Z" fill="#FEA55C"/>
<path d="M55.15 84.1244L53.15 84.4244C50.35 84.8244 48.45 87.4244 48.85 90.2244C49.25 92.7244 51.45 94.6244 53.85 94.6244C54.05 94.6244 54.35 94.6244 54.65 94.5244C55.45 94.4244 56.35 94.2244 57.15 94.1244C59.95 93.5244 61.65 90.9244 61.15 88.1244C60.55 85.4244 57.85 83.6244 55.15 84.1244Z" fill="#FEA55C"/>
<path d="M70.7501 76.9244L69.1501 78.1245C66.8501 79.7245 66.3501 82.9245 67.9501 85.2245C68.9501 86.6245 70.5501 87.4244 72.1501 87.4244C73.1501 87.4244 74.1501 87.1244 75.0501 86.5244C75.7501 86.0244 76.4501 85.5244 77.0501 85.0244C79.2501 83.3244 79.6501 80.0244 77.8501 77.8244C76.2501 75.5244 72.9501 75.2244 70.7501 76.9244Z" fill="#FEA55C"/>
</svg>
