<svg width="30" height="24" viewBox="0 0 30 24" fill="none" xmlns="http://www.w3.org/2000/svg">
<path d="M20.0824 20.8146L27.156 14.3302C27.2854 14.2116 27.4368 14.1196 27.6017 14.0595C27.7665 13.9994 27.9416 13.9724 28.1169 13.98C28.2922 13.9875 28.4643 14.0296 28.6234 14.1036C28.7825 14.1777 28.9254 14.2824 29.044 14.4117C29.1627 14.5411 29.2546 14.6925 29.3147 14.8573C29.3748 15.0222 29.4019 15.1973 29.3943 15.3726C29.3867 15.5479 29.3447 15.72 29.2706 15.8791C29.1965 16.0382 29.0919 16.1811 28.9625 16.2997L20.9456 23.6486C20.6918 23.8813 20.3579 24.0071 20.0136 23.9996C19.6693 23.9921 19.3412 23.852 19.0977 23.6085L15.0892 19.6C14.8458 19.348 14.7111 19.0105 14.7142 18.6602C14.7172 18.3098 14.8578 17.9747 15.1055 17.727C15.3532 17.4793 15.6884 17.3387 16.0387 17.3357C16.389 17.3326 16.7265 17.4673 16.9785 17.7107L20.0824 20.8146ZM0 22.6638C0.00322863 20.2706 0.719714 17.9326 2.05796 15.9484C3.3962 13.9642 5.29547 12.424 7.51321 11.5243C6.37861 10.467 5.6489 9.04655 5.45011 7.50843C5.25133 5.97032 5.59596 4.41107 6.42447 3.10001C7.25298 1.78895 8.51335 0.808398 9.98789 0.327721C11.4624 -0.152955 13.0585 -0.103574 14.5006 0.467335C15.9426 1.03824 17.1399 2.09483 17.8858 3.4546C18.6317 4.81437 18.8792 6.39194 18.5858 7.91483C18.2923 9.43772 17.4762 10.8103 16.2784 11.7955C15.0806 12.7807 13.5763 13.3166 12.0254 13.3107C9.77698 13.3135 7.60455 14.1249 5.90481 15.5968C4.20507 17.0686 3.09141 19.1027 2.76718 21.3277H12.0254C12.3798 21.3277 12.7196 21.4685 12.9702 21.719C13.2208 21.9696 13.3616 22.3095 13.3616 22.6638C13.3616 23.0182 13.2208 23.3581 12.9702 23.6086C12.7196 23.8592 12.3798 24 12.0254 24H1.33616C0.981786 24 0.641929 23.8592 0.391351 23.6086C0.140773 23.3581 0 23.0182 0 22.6638ZM8.01694 6.62996C8.01694 7.42276 8.25203 8.19776 8.69249 8.85695C9.13295 9.51614 9.75898 10.0299 10.4914 10.3333C11.2239 10.6367 12.0299 10.7161 12.8074 10.5614C13.585 10.4067 14.2992 10.025 14.8598 9.46438C15.4204 8.90378 15.8022 8.18954 15.9569 7.41198C16.1115 6.63441 16.0321 5.82844 15.7288 5.09599C15.4254 4.36353 14.9116 3.7375 14.2524 3.29704C13.5932 2.85658 12.8182 2.62149 12.0254 2.62149C10.9623 2.62149 9.94273 3.04381 9.19099 3.79555C8.43926 4.54728 8.01694 5.56685 8.01694 6.62996Z" fill="#AFAFAF"/>
</svg>
