<?xml version="1.0" encoding="utf-8"?>
<!-- Generator: Adobe Illustrator 17.0.0, SVG Export Plug-In . SVG Version: 6.00 Build 0)  -->
<!DOCTYPE svg PUBLIC "-//W3C//DTD SVG 1.1//EN" "http://www.w3.org/Graphics/SVG/1.1/DTD/svg11.dtd">
<svg version="1.1" id="Layer_1" xmlns="http://www.w3.org/2000/svg" xmlns:xlink="http://www.w3.org/1999/xlink" x="0px" y="0px"
	 width="24px" height="24px" viewBox="0 0 24 24" enable-background="new 0 0 24 24" xml:space="preserve">
<path fill="none" stroke="#AFAFAF" stroke-width="1.5" stroke-linecap="round" stroke-linejoin="round" d="M12,5.683
	C12.91,5.25,13.925,5,15,5c3.866,0,7,3.134,7,7s-3.134,7-7,7c-1.075,0-2.09-0.25-3-0.683"/>
<path fill="none" stroke="#AFAFAF" stroke-width="1.5" stroke-linecap="round" stroke-linejoin="round" d="M13.95,7.05
	c2.734,2.734,2.734,7.166,0,9.899c-2.734,2.734-7.166,2.734-9.899,0c-2.734-2.734-2.734-7.166,0-9.899S11.216,4.317,13.95,7.05"/>
<path fill="none" stroke="#AFAFAF" stroke-width="1.5" stroke-linecap="round" stroke-linejoin="round" d="M9,9l3,3l-3,3l-3-3L9,9z"
	/>
</svg>
