<svg width="34" height="34" viewBox="0 0 34 34" fill="none" xmlns="http://www.w3.org/2000/svg">
<path d="M21.8961 12.1027C21.678 10.1817 20.8393 8.31734 19.366 6.84259C15.9079 3.3845 10.3021 3.3845 6.84405 6.84259C3.38597 10.3007 3.38597 15.9064 6.84405 19.3645C10.3021 22.8226 15.9079 22.8226 19.366 19.3645C20.3874 18.3431 21.0985 17.1333 21.5165 15.8483" stroke="white" stroke-width="1.5" stroke-linecap="round" stroke-linejoin="round"/>
<path d="M12.104 21.8974C12.3222 23.8184 13.1608 25.6827 14.6342 27.1575C18.0923 30.6156 23.698 30.6156 27.1561 27.1575C30.6142 23.6994 30.6142 18.0936 27.1561 14.6356C23.698 11.1775 18.0923 11.1775 14.6342 14.6356C13.6128 15.657 12.9016 16.8668 12.4837 18.1517" stroke="white" stroke-width="1.5" stroke-linecap="round" stroke-linejoin="round"/>
</svg>
