<?xml version="1.0" encoding="utf-8"?>
<!-- Generator: Adobe Illustrator 17.0.0, SVG Export Plug-In . SVG Version: 6.00 Build 0)  -->
<!DOCTYPE svg PUBLIC "-//W3C//DTD SVG 1.1//EN" "http://www.w3.org/Graphics/SVG/1.1/DTD/svg11.dtd">
<svg version="1.1" id="Layer_1" xmlns="http://www.w3.org/2000/svg" xmlns:xlink="http://www.w3.org/1999/xlink" x="0px" y="0px"
	 width="24px" height="24px" viewBox="0 0 24 24" enable-background="new 0 0 24 24" xml:space="preserve">
<path fill="none" stroke="#FFFFFF" stroke-width="1.5" stroke-linecap="round" stroke-linejoin="round" d="M21,12h-3.581
	C16.635,12,16,12.635,16,13.419v1.162C16,15.365,16.635,16,17.419,16H21"/>
<path fill="none" stroke="#FFFFFF" stroke-width="1.5" stroke-linecap="round" stroke-linejoin="round" d="M19,21H5
	c-1.105,0-2-0.895-2-2V9c0-1.105,0.895-2,2-2h14c1.105,0,2,0.895,2,2v10C21,20.105,20.105,21,19,21z"/>
<path fill="none" stroke="#FFFFFF" stroke-width="1.5" stroke-linecap="round" stroke-linejoin="round" d="M14,7l-3.293-3.293
	c-0.391-0.391-1.024-0.391-1.414,0L6,7"/>
<path fill="none" stroke="#FFFFFF" stroke-width="1.5" stroke-linecap="round" stroke-linejoin="round" d="M12,5l1.293-1.293
	c0.391-0.391,1.024-0.391,1.414,0L18,7"/>
</svg>
