<svg width="14" height="18" viewBox="0 0 14 18" fill="none" xmlns="http://www.w3.org/2000/svg">
<path fill-rule="evenodd" clip-rule="evenodd" d="M7.87377 2.81488C7.87377 3.1132 7.75526 3.3993 7.54431 3.61025C7.33337 3.82119 7.04726 3.9397 6.74894 3.9397C6.45062 3.9397 6.16452 3.82119 5.95357 3.61025C5.74263 3.3993 5.62412 3.1132 5.62412 2.81488C5.62412 2.51656 5.74263 2.23045 5.95357 2.01951C6.16452 1.80856 6.45062 1.69005 6.74894 1.69005C7.04726 1.69005 7.33337 1.80856 7.54431 2.01951C7.75526 2.23045 7.87377 2.51656 7.87377 2.81488ZM9.50476 2.25247C9.37568 1.61678 9.0308 1.04526 8.52856 0.634758C8.02632 0.224251 7.3976 0 6.74894 0C6.10028 0 5.47157 0.224251 4.96933 0.634758C4.46709 1.04526 4.12221 1.61678 3.99312 2.25247H1.12482C0.826502 2.25247 0.540399 2.37097 0.329453 2.58192C0.118508 2.79287 0 3.07897 0 3.37729V16.8752C0 17.1735 0.118508 17.4596 0.329453 17.6705C0.540399 17.8815 0.826502 18 1.12482 18H12.3731C12.6714 18 12.9575 17.8815 13.1684 17.6705C13.3794 17.4596 13.4979 17.1735 13.4979 16.8752V3.37729C13.4979 3.07897 13.3794 2.79287 13.1684 2.58192C12.9575 2.37097 12.6714 2.25247 12.3731 2.25247H9.50476ZM6.74894 5.62694H3.93688V3.9397H1.68724V16.3128H11.8106V3.9397H9.561V5.62694H6.74894ZM3.37447 8.7202C3.37447 8.49646 3.46335 8.28188 3.62156 8.12368C3.77977 7.96547 3.99435 7.87659 4.21809 7.87659H9.2798C9.50354 7.87659 9.71811 7.96547 9.87632 8.12368C10.0345 8.28188 10.1234 8.49646 10.1234 8.7202C10.1234 8.94394 10.0345 9.15852 9.87632 9.31673C9.71811 9.47494 9.50354 9.56382 9.2798 9.56382H4.21809C3.99435 9.56382 3.77977 9.47494 3.62156 9.31673C3.46335 9.15852 3.37447 8.94394 3.37447 8.7202ZM4.21809 10.6886C3.99435 10.6886 3.77977 10.7775 3.62156 10.9357C3.46335 11.0939 3.37447 11.3085 3.37447 11.5323C3.37447 11.756 3.46335 11.9706 3.62156 12.1288C3.77977 12.287 3.99435 12.3759 4.21809 12.3759H9.2798C9.50354 12.3759 9.71811 12.287 9.87632 12.1288C10.0345 11.9706 10.1234 11.756 10.1234 11.5323C10.1234 11.3085 10.0345 11.0939 9.87632 10.9357C9.71811 10.7775 9.50354 10.6886 9.2798 10.6886H4.21809Z" fill="#AFAFAF"/>
</svg>
