<svg width="14" height="15" viewBox="0 0 14 15" fill="none" xmlns="http://www.w3.org/2000/svg">
<path fill-rule="evenodd" clip-rule="evenodd" d="M7.22723 0.0502946C7.15606 0.0171657 7.0785 0 7 0C6.9215 0 6.84394 0.0171657 6.77277 0.0502946L0.311231 3.06568C0.218299 3.10894 0.139645 3.17782 0.0845126 3.26424C0.0293805 3.35066 6.10851e-05 3.45102 0 3.55353V10.9843C6.10851e-05 11.0868 0.0293805 11.1872 0.0845126 11.2736C0.139645 11.36 0.218299 11.4289 0.311231 11.4721L6.77277 14.4875C6.84394 14.5207 6.9215 14.5378 7 14.5378C7.0785 14.5378 7.15606 14.5207 7.22723 14.4875L13.6888 11.4721C13.7817 11.4289 13.8604 11.36 13.9155 11.2736C13.9706 11.1872 13.9999 11.0868 14 10.9843V3.55353C13.9999 3.45102 13.9706 3.35066 13.9155 3.26424C13.8604 3.17782 13.7817 3.10894 13.6888 3.06568L7.22723 0.0502946ZM7 2.59183L5.36308 1.89506L7 1.13045L8.63692 1.89506L7 2.59183ZM7.21108 3.67199L9.94862 2.50891L12.1391 3.53091L7 5.71491L1.86092 3.53091L4.05138 2.50783L6.78892 3.67199C6.85566 3.70042 6.92746 3.71508 7 3.71508C7.07254 3.71508 7.14434 3.70042 7.21108 3.67199ZM7.53846 6.65506L12.9231 4.36768V7.73199L10.8575 8.68183C10.6705 8.76788 10.5121 8.90571 10.401 9.07902C10.2899 9.25232 10.2309 9.45383 10.2308 9.65968V11.8975L7.53846 13.1543V6.65506ZM11.3077 11.3957L12.9231 10.6418V8.9166L11.3077 9.65968V11.3957ZM6.46154 6.65506V13.1532L3.77138 11.8975V9.65968C3.77129 9.45383 3.71221 9.25232 3.60112 9.07902C3.49004 8.90571 3.33162 8.76788 3.14462 8.68183L1.07692 7.73091V4.36768L6.46154 6.65506ZM1.07692 10.6397L2.69446 11.3957V9.65968L1.07692 8.9166V10.6397Z" fill="#AFAFAF"/>
</svg>
