<?xml version="1.0" encoding="utf-8"?>
<!-- Generator: Adobe Illustrator 17.0.0, SVG Export Plug-In . SVG Version: 6.00 Build 0)  -->
<!DOCTYPE svg PUBLIC "-//W3C//DTD SVG 1.1//EN" "http://www.w3.org/Graphics/SVG/1.1/DTD/svg11.dtd">
<svg version="1.1" id="Layer_1" xmlns="http://www.w3.org/2000/svg" xmlns:xlink="http://www.w3.org/1999/xlink" x="0px" y="0px"
	 width="24px" height="24px" viewBox="0 0 24 24" enable-background="new 0 0 24 24" xml:space="preserve">
<path fill="none" stroke="#A8A7A7" stroke-width="1.5" stroke-linecap="round" stroke-linejoin="round" d="M6.998,21.004h-1
	c-1.658,0-3.001-1.344-3.001-3.001v-1"/>
<path fill="none" stroke="#A8A7A7" stroke-width="1.5" stroke-linecap="round" stroke-linejoin="round" d="M17.002,2.996h1
	c1.657,0,3.001,1.344,3.001,3.001v1"/>
<path fill="none" stroke="#A8A7A7" stroke-width="1.5" stroke-linecap="round" stroke-linejoin="round" d="M2.996,6.998v-1
	c0-1.658,1.344-3.001,3.001-3.001h1"/>
<path fill="none" stroke="#A8A7A7" stroke-width="1.5" stroke-linecap="round" stroke-linejoin="round" d="M21.004,17.002v1
	c0,1.657-1.344,3.001-3.001,3.001h-1"/>
<path fill="none" stroke="#A8A7A7" stroke-width="1.5" stroke-linecap="round" stroke-linejoin="round" d="M5.997,12V8.999
	c0-1.658,1.344-3.001,3.001-3.001h6.002c1.658,0,3.001,1.344,3.001,3.001V12"/>
<path fill="none" stroke="#A8A7A7" stroke-width="1.5" stroke-linecap="round" stroke-linejoin="round" d="M18.003,15.001
	c0,1.658-1.344,3.001-3.001,3.001H8.999c-1.658,0-3.001-1.344-3.001-3.001"/>
<path fill="none" stroke="#A8A7A7" stroke-width="1.5" stroke-linecap="round" stroke-linejoin="round" d="M3.997,12h17.007"/>
</svg>
