<svg width="18" height="18" viewBox="0 0 18 18" fill="none" xmlns="http://www.w3.org/2000/svg">
<path d="M11.2918 6.92618L8.50687 9.71109C8.3123 9.90566 7.9493 9.90566 7.75474 9.71109L6.71511 8.67147C6.54668 8.50303 6.32308 8.41592 6.09947 8.41592C5.87586 8.41592 5.65226 8.50013 5.48383 8.67147C5.14406 9.01123 5.14406 9.56299 5.48383 9.90275L6.52636 10.9453C6.95614 11.3751 7.52532 11.6103 8.13516 11.6103C8.74499 11.6103 9.31417 11.3751 9.74396 10.9453L12.5289 8.16037C12.8686 7.8206 12.8686 7.26884 12.5289 6.92908C12.1891 6.58931 11.6374 6.58931 11.2976 6.92908L11.2918 6.92618Z" fill="#AFAFAF"/>
<path d="M4.28155 1.71065C4.24089 1.98652 4.33092 2.2595 4.52839 2.45697C4.79846 2.72704 5.21663 2.79092 5.55059 2.61088C6.54665 2.07074 7.67339 1.76872 8.81175 1.73969C9.19798 1.72807 9.52323 1.46961 9.62486 1.09791C9.69746 0.827836 9.63938 0.549054 9.46515 0.328352C9.29672 0.113458 9.04407 -0.00560498 8.7711 0.00020297C7.35976 0.0379547 5.96005 0.409663 4.72586 1.07758C4.48483 1.20826 4.32511 1.44058 4.28445 1.71355L4.28155 1.71065Z" fill="#AFAFAF"/>
<path d="M16.7486 5.04734C16.8502 4.79469 16.827 4.51591 16.6847 4.2865C16.3159 3.68537 15.8745 3.12781 15.375 2.62542C14.8726 2.12303 14.315 1.68163 13.7139 1.31573C13.5774 1.23151 13.4264 1.19086 13.2725 1.19086C13.1651 1.19086 13.0547 1.21119 12.9502 1.25474C12.6888 1.35929 12.5 1.57128 12.4274 1.84135C12.3258 2.21887 12.4797 2.60509 12.8108 2.80837C13.2928 3.10458 13.74 3.45886 14.1437 3.85961C14.5474 4.26326 14.8987 4.71048 15.1949 5.19254C15.3982 5.52069 15.7844 5.6746 16.1591 5.57586C16.4349 5.50036 16.6469 5.3116 16.7486 5.05315V5.04734Z" fill="#AFAFAF"/>
<path d="M16.2866 13.7186C16.5596 13.6779 16.7919 13.5182 16.9226 13.2772C17.5905 12.043 17.9651 10.6433 18 9.23193C18.0058 8.96186 17.8867 8.70922 17.6718 8.53788C17.4511 8.36364 17.1723 8.30556 16.9022 8.37816C16.5334 8.4769 16.2692 8.81086 16.2605 9.19128C16.2285 10.3296 15.9265 11.4564 15.3893 12.4524C15.2121 12.7806 15.2731 13.1959 15.5374 13.4659L15.5432 13.4717C15.7407 13.6692 16.0107 13.7592 16.2895 13.7186H16.2866Z" fill="#AFAFAF"/>
<path d="M13.284 16.8926C13.525 16.7591 13.6847 16.5267 13.7254 16.2538C13.7631 15.9779 13.676 15.7107 13.4785 15.5133C13.2085 15.2432 12.7874 15.1822 12.4534 15.3652C11.5939 15.8385 10.6675 16.1231 9.70046 16.216C8.66664 16.3148 7.65025 16.1957 6.68322 15.8646C6.01531 15.6352 5.27189 15.6207 4.5488 15.8269L3.22459 16.2044C2.71639 16.3496 2.17045 16.1289 1.90038 15.6672C1.74356 15.4 1.70871 15.0515 1.80745 14.706L2.18787 13.3701C2.37953 12.7022 2.3563 11.9791 2.12108 11.2851C1.79583 10.3151 1.67967 9.31037 1.7755 8.29397C1.86843 7.32985 2.15302 6.40349 2.62637 5.541C2.80932 5.20705 2.74834 4.78597 2.47827 4.5159C2.2837 4.32133 2.01363 4.23131 1.73775 4.26906C1.46478 4.30681 1.23246 4.46944 1.09888 4.71047C0.512274 5.77913 0.155085 6.92911 0.0418297 8.12845C-0.0801373 9.38877 0.065062 10.6404 0.471619 11.8426C0.593586 12.2027 0.608105 12.5657 0.512274 12.8939L0.131853 14.2268C-0.0975608 15.0283 -0.00172952 15.8763 0.399019 16.5529C0.921735 17.4415 1.88295 17.9904 2.90806 17.9904C3.17813 17.9904 3.44529 17.9526 3.70665 17.88L5.02796 17.5025C5.21091 17.4502 5.39676 17.4241 5.57391 17.4241C5.76266 17.4241 5.94562 17.4531 6.11695 17.5112C7.31339 17.9236 8.60275 18.0717 9.86598 17.9497C11.0653 17.8364 12.2153 17.4793 13.284 16.8926Z" fill="#AFAFAF"/>
</svg>
