<svg width="24" height="24" viewBox="0 0 24 24" fill="none" xmlns="http://www.w3.org/2000/svg">
<path d="M11.999 6.37502C11.847 6.37502 11.724 6.49802 11.726 6.65002C11.726 6.80202 11.849 6.92502 12.001 6.92502C12.153 6.92502 12.276 6.80202 12.276 6.65002C12.274 6.49802 12.152 6.37502 11.999 6.37502" stroke="#323232" stroke-width="1.5" stroke-linecap="round" stroke-linejoin="round"/>
<path d="M6.92391 11.999C6.92391 11.847 6.80091 11.724 6.64991 11.726C6.49791 11.726 6.37491 11.849 6.37491 12.001C6.37491 12.153 6.49791 12.276 6.64991 12.276C6.80191 12.276 6.92391 12.152 6.92391 11.999" stroke="#323232" stroke-width="1.5" stroke-linecap="round" stroke-linejoin="round"/>
<path d="M15.9772 8.02199C15.8702 7.91499 15.6962 7.91499 15.5902 8.02299C15.4832 8.12999 15.4832 8.30399 15.5902 8.41099C15.6972 8.51799 15.8712 8.51799 15.9782 8.41099C16.0852 8.30299 16.0852 8.12999 15.9772 8.02199" stroke="#323232" stroke-width="1.5" stroke-linecap="round" stroke-linejoin="round"/>
<path d="M8.40986 15.589C8.30286 15.482 8.12886 15.482 8.02286 15.59C7.91586 15.697 7.91586 15.871 8.02286 15.978C8.12986 16.085 8.30386 16.085 8.41086 15.978C8.51786 15.871 8.51786 15.697 8.40986 15.589" stroke="#323232" stroke-width="1.5" stroke-linecap="round" stroke-linejoin="round"/>
<path d="M8.41087 8.40998C8.51787 8.30298 8.51787 8.12898 8.40987 8.02298C8.30287 7.91598 8.12887 7.91598 8.02187 8.02298C7.91487 8.12998 7.91487 8.30398 8.02187 8.41098C8.12887 8.51798 8.30287 8.51798 8.41087 8.40998" stroke="#323232" stroke-width="1.5" stroke-linecap="round" stroke-linejoin="round"/>
<path fill-rule="evenodd" clip-rule="evenodd" d="M12 21C6.94503 21 2.86303 16.832 3.00403 11.745C3.13403 7.04903 7.04903 3.13403 11.745 3.00403C16.832 2.86303 21 6.94503 21 12V13C21 14.105 20.105 15 19 15H16.937C15.608 15 14.649 16.272 15.014 17.549L15.271 18.45C15.637 19.728 14.677 21 13.349 21H12Z" stroke="#323232" stroke-width="1.5" stroke-linecap="round" stroke-linejoin="round"/>
</svg>
