<?xml version="1.0" encoding="utf-8"?>
<!-- Generator: Adobe Illustrator 17.0.0, SVG Export Plug-In . SVG Version: 6.00 Build 0)  -->
<!DOCTYPE svg PUBLIC "-//W3C//DTD SVG 1.1//EN" "http://www.w3.org/Graphics/SVG/1.1/DTD/svg11.dtd">
<svg version="1.1" id="Layer_1" xmlns="http://www.w3.org/2000/svg" xmlns:xlink="http://www.w3.org/1999/xlink" x="0px" y="0px"
	 width="24px" height="24px" viewBox="0 0 24 24" enable-background="new 0 0 24 24" xml:space="preserve">
<g>
	<path fill="none" stroke="#FFFFFF" stroke-width="1.5" stroke-linecap="round" d="M1.437,8.479v7.042c0,3.318,0,4.979,1.032,6.011
		c1.029,1.032,2.691,1.032,6.012,1.032h7.041c3.318,0,4.98,0,6.009-1.032c1.032-1.032,1.032-2.692,1.032-6.011V8.479
		c0-3.32,0-4.979-1.032-6.011c-1.029-1.032-2.691-1.032-6.009-1.032H8.481"/>
	<path fill="#FFFFFF" d="M15.522,15.521v1.173h1.174v-1.173H15.522z M6.96,5.302c-0.46-0.458-1.202-0.458-1.659,0
		c-0.46,0.458-0.46,1.201,0,1.659L6.96,5.302z M14.347,7.306v8.216h2.345V7.306H14.347z M15.522,14.347H7.304v2.347h8.218V14.347z
		 M16.353,14.692L6.961,5.303L5.302,6.962l9.389,9.389L16.353,14.692z"/>
</g>
</svg>
